<svg width="17" height="10" viewBox="0 0 17 10" fill="none" xmlns="http://www.w3.org/2000/svg">
<path fill-rule="evenodd" clip-rule="evenodd" d="M9.93565 0L5.20431 4.73134L5.22301 4.75003L5.20438 4.76866L9.93572 9.5L10.9871 8.44859L7.2885 4.74997L10.9871 1.05141L9.93565 0ZM4.73134 6.26767e-06L0 4.73135L0.0186954 4.75004L6.92414e-05 4.76867L4.73141 9.50001L5.78282 8.4486L2.08419 4.74997L5.78275 1.05142L4.73134 6.26767e-06ZM10.4084 4.73135L15.1398 6.26767e-06L16.1912 1.05142L12.4926 4.74997L16.1912 8.4486L15.1398 9.50001L10.4085 4.76867L10.4271 4.75004L10.4084 4.73135Z" fill="white"/>
</svg>
