<svg width="540" height="65" viewBox="0 0 540 65" fill="none" xmlns="http://www.w3.org/2000/svg">
<path d="M18.2401 63H31.396V13.136H49.2441V1.63602H0.300049V13.136H18.2401V63Z" fill="white"/>
<path d="M57.6189 63H101.043V51.684H70.6829V37.424H100.399V26.2H70.6829V12.86H101.043V1.63602H57.6189V63Z" fill="white"/>
<path d="M109.048 63H155.784V51.5H126.16L155.14 12.124V1.63602H109.048V13.136H138.028L109.048 52.42V63Z" fill="white"/>
<path d="M161.499 32.364C161.499 50.856 175.023 64.104 193.515 64.104C212.099 64.104 225.623 50.856 225.623 32.364C225.623 13.872 212.099 0.624023 193.515 0.624023C175.023 0.624023 161.499 13.872 161.499 32.364ZM212.191 32.364C212.191 43.772 204.831 52.512 193.515 52.512C182.199 52.512 174.931 43.772 174.931 32.364C174.931 20.864 182.199 12.216 193.515 12.216C204.831 12.216 212.191 20.864 212.191 32.364Z" fill="white"/>
<path d="M230.559 54.352C236.355 60.148 244.819 64.104 256.595 64.104C273.155 64.104 281.159 55.64 281.159 44.416C281.159 30.8 268.279 27.764 258.159 25.464C251.075 23.808 245.923 22.52 245.923 18.38C245.923 14.7 249.051 12.124 254.939 12.124C260.919 12.124 267.543 14.24 272.511 18.84L279.779 9.27202C273.707 3.66002 265.611 0.716022 255.859 0.716022C241.415 0.716022 232.583 8.99603 232.583 19.208C232.583 32.916 245.463 35.676 255.491 37.976C262.575 39.632 267.911 41.196 267.911 45.796C267.911 49.292 264.415 52.696 257.239 52.696C248.775 52.696 242.059 48.924 237.735 44.416L230.559 54.352Z" fill="white"/>
<path d="M314.778 63H350.934V56.192H322.414V1.63602H314.778V63Z" fill="white"/>
<path d="M405.744 63H414.208L389.46 1.63602H379.984L355.328 63H363.792L369.22 49.384H400.316L405.744 63ZM384.768 8.44402L398.016 42.576H371.428L384.768 8.44402Z" fill="white"/>
<path d="M465.655 63H473.015V1.63602H465.379V50.12L430.051 1.63602H422.231V63H429.867V13.504L465.655 63Z" fill="white"/>
<path d="M487.367 63H508.343C527.387 63 539.807 49.844 539.807 32.364C539.807 14.976 527.387 1.63602 508.343 1.63602H487.367V63ZM495.003 56.192V8.44402H508.343C523.523 8.44402 531.895 19.116 531.895 32.364C531.895 45.52 523.247 56.192 508.343 56.192H495.003Z" fill="white"/>
</svg>
