<!-- "display: none" ensures the SVG doesn't take up space even though it's not being shown because of the use of symbol -->
<svg xmlns="http://www.w3.org/2000/svg" style="display:none;">
    <symbol id="map" viewBox="0 0 24 24">
        <g>
            <polygon fill="none" stroke-linecap="round" stroke-linejoin="round" stroke-miterlimit="10" points="8.5,22.5     1.5,17.5 1.5,1.5 8.5,6.5 15.5,1.5 22.5,6.5 22.5,22.5 15.5,17.5   "></polygon>
            <line fill="none" stroke-linecap="round" stroke-linejoin="round" stroke-miterlimit="10" x1="8.5" y1="6.5" x2="8.5" y2="22.5"></line>
            <line fill="none" stroke-linecap="round" stroke-linejoin="round" stroke-miterlimit="10" x1="15.5" y1="17.5" x2="15.5" y2="1.531"></line>
        </g>
        <g id="Invisible_Shape">
            <rect fill="none" stroke="none" width="24" height="24"></rect>
        </g>
    </symbol>
    <symbol id="wallet" viewBox="0 0 24 24">
        <g id="Outline_Icons">
            <path fill="none" stroke-linecap="round" stroke-linejoin="round" stroke-miterlimit="10" d="M1.297,1.453    L14.59,4.772c1.601,0.4,2.91,2.077,2.91,3.728v12c0,1.65-1.314,2.69-2.92,2.312L3.42,20.188C1.814,19.809,0.5,18.15,0.5,16.5v-13    c0-1.651,1.35-3,3-3h17c1.65,0,3,1.349,3,3v11c0,1.65-1.35,3-3,3h-3"></path>
            <line fill="none" stroke-linecap="round" stroke-linejoin="round" stroke-miterlimit="10" x1="9.5" y1="3.5" x2="19.5" y2="3.5"></line>
            <circle fill="none" stroke-linecap="round" stroke-linejoin="round" stroke-miterlimit="10" cx="13" cy="13.5" r="2"></circle>
            <line fill="none" stroke-linecap="round" stroke-linejoin="round" stroke-miterlimit="10" x1="17.5" y1="8.5" x2="19.5" y2="8.5"></line>
        </g>
        <g id="Invisible_Shape">
            <rect fill="none" stroke="none" width="24" height="24"></rect>
        </g>
    </symbol>
    <symbol id="buy" viewBox="0 0 24 24">
        <g id="Outline_Icons">
            <polygon fill="none" stroke-linecap="round" stroke-linejoin="round" stroke-miterlimit="10" points="    20.512,22.5 3.512,22.5 1.512,11.5 22.512,11.5   "></polygon>
            <rect x="0.512" y="9.5" fill="none" stroke-linecap="round" stroke-linejoin="round" stroke-miterlimit="10" width="23" height="2"></rect>
            <line fill="none" stroke-linecap="round" stroke-linejoin="round" stroke-miterlimit="10" x1="3.512" y1="7.5" x2="9.512" y2="1.5"></line>
            <line fill="none" stroke-linecap="round" stroke-linejoin="round" stroke-miterlimit="10" x1="20.512" y1="7.5" x2="14.512" y2="1.5"></line>
            <line fill="none" stroke-linecap="round" stroke-linejoin="round" stroke-miterlimit="10" x1="13.512" y1="13.5" x2="13.512" y2="19.5"></line>
            <line fill="none" stroke-linecap="round" stroke-linejoin="round" stroke-miterlimit="10" x1="17.512" y1="13.5" x2="17.512" y2="19.5"></line>
            <line fill="none" stroke-linecap="round" stroke-linejoin="round" stroke-miterlimit="10" x1="10.512" y1="13.5" x2="10.512" y2="19.5"></line>
            <line fill="none" stroke-linecap="round" stroke-linejoin="round" stroke-miterlimit="10" x1="6.512" y1="13.5" x2="6.512" y2="19.5"></line>
        </g>
        <g id="Invisible_Shape">
            <rect fill="none" stroke="none" width="24" height="24"></rect>
        </g>
    </symbol>
    <symbol id="sell" viewBox="0 0 24 24">
        <g id="Outline_Icons">
            <path fill="none" stroke-linecap="round" stroke-linejoin="round" stroke-miterlimit="10" d="M10.5,23.5h-10v-1    c0-0.551,0.448-1,1-1h8c0.553,0,1,0.449,1,1V23.5z"></path>
            <path fill="none" stroke-linecap="round" stroke-linejoin="round" stroke-miterlimit="10" d="M9.5,21.5h-8v-1    c0-0.551,0.448-1,1-1h6c0.553,0,1,0.449,1,1V21.5z"></path>
            <rect x="7.611" y="5.416" transform="matrix(0.7071 -0.7071 0.7071 0.7071 -2.2116 10.443)" fill="none" stroke-linecap="round" stroke-linejoin="round" stroke-miterlimit="10" width="7.778" height="4.95"></rect>
            <path fill="none" stroke-linecap="round" stroke-linejoin="round" stroke-miterlimit="10" d="M7,8.891l-0.5-0.5    c-0.942-0.94-2.445,0.555-1.5,1.5l4.5,4.5c0.943,0.942,2.446-0.555,1.5-1.5l-0.5-0.5"></path>
            <path fill="none" stroke-linecap="round" stroke-linejoin="round" stroke-miterlimit="10" d="M16,6.891l0.5,0.5    c0.943,0.942,2.446-0.555,1.5-1.5l-4.5-4.5c-0.942-0.94-2.445,0.555-1.5,1.5l0.5,0.5"></path>
            <line fill="none" stroke-linecap="round" stroke-linejoin="round" stroke-miterlimit="10" x1="13.25" y1="9.641" x2="23.5" y2="19.891"></line>
        </g>
        <g id="Invisible_Shape">
            <rect fill="none" stroke="none" width="24" height="24"></rect>
        </g>
    </symbol>
    <symbol id="location" viewBox="0 0 12 12">
        <g id="Outline_Icons">
            <path fill-rule="evenodd" clip-rule="evenodd" d="M6 11.2222C6 11.2222 10 8.33333 10 5.22222C10 2.89067 8.33156 1 6 1C3.668 1 2 2.89067 2 5.22222C2 8.33333 6 11.2222 6 11.2222ZM8.22228 5.00005C8.22228 6.22735 7.22735 7.22228 6.00005 7.22228C4.77275 7.22228 3.77783 6.22735 3.77783 5.00005C3.77783 3.77275 4.77275 2.77783 6.00005 2.77783C7.22735 2.77783 8.22228 3.77275 8.22228 5.00005Z" fill="white"/>
        </g>
    </symbol>
    <symbol id="github" viewBox="0 0 24 24">
        <g id="Outline_Icons">
            <path fill="none" stroke-linejoin="round" stroke-miterlimit="10" d="M11.999,0.5C5.649,0.5,0.5,5.648,0.5,12    c0,5.082,3.294,9.392,7.865,10.914c0.574,0.104,0.756-0.236,0.756-0.541c0-0.274,0.006-1.037,0-1.997    C5.923,21.07,5.26,18.861,5.26,18.861c-0.522-1.329-1.275-1.682-1.275-1.682C2.94,16.465,4.062,16.48,4.062,16.48    c1.153,0.08,1.762,1.184,1.762,1.184c1.026,1.758,2.691,1.25,3.346,0.956c0.105-0.742,0.402-1.251,0.731-1.536    c-2.554-0.292-5.238-1.277-5.238-5.686c0-1.255,0.448-2.281,1.184-3.086C5.729,8.023,5.333,6.853,5.959,5.27    c0,0,0.967-0.31,3.162,1.18c0.918-0.256,1.902-0.383,2.88-0.388c0.977,0.005,1.96,0.132,2.88,0.388    c2.195-1.488,3.159-1.18,3.159-1.18c0.627,1.583,0.232,2.754,0.114,3.043c0.736,0.805,1.183,1.831,1.183,3.086    c0,4.42-2.688,5.391-5.251,5.674c0.412,0.357,0.787,1.047,0.787,2.12c0,1.438,0,2.806,0,3.184c0,0.308,0.186,0.647,0.77,0.536    C20.209,21.389,23.5,17.08,23.5,12C23.5,5.648,18.352,0.5,11.999,0.5z"></path>
        </g>
        <g id="Invisible_Shape">
            <rect fill="none" stroke="none" width="24" height="24"></rect>
        </g>
    </symbol>
    <symbol id="owner" viewBox="0 0 24 24">
        <g id="Outline_Icons">
            <path fill="none" stroke-linejoin="round" stroke-miterlimit="10" d="M10,15c0,0-1.5-0.5-1.5-3 c-0.826,0-0.826-2,0-2c0-0.335-1.5-4,1-3.5c0.5-2,6-2,6.5,0c0.347,1.388-0.5,3.254-0.5,3.5c0.826,0,0.826,2,0,2 c0,2.5-1.5,3-1.5,3v2.5c2.477,0.929,4.93,1.697,6.186,2.575C22.234,17.999,23.5,15.147,23.5,12c0-6.352-5.148-11.5-11.5-11.5 S0.5,5.648,0.5,12c0,3.153,1.27,6.009,3.325,8.087c1.33-0.92,3.952-1.746,6.175-2.587V15z"/>
            <path fill="none" stroke-linejoin="round" stroke-miterlimit="10" d="M3.825,20.087 C5.91,22.194,8.802,23.5,12,23.5c3.203,0,6.1-1.311,8.186-3.425"/>
        </g>
        <g id="Invisible_Shape">
            <rect fill="none" stroke="none" width="24" height="24"></rect>
        </g>
    </symbol>
    <symbol id="barcode" viewBox="0 0 24 24">
        <g id="Outline_Icons">
            <polyline fill="none" stroke-linecap="round" stroke-linejoin="round" stroke-miterlimit="10" points="0.502,18.531 0.502,21.5 3.471,21.5" />
            <polyline fill="none" stroke-linecap="round" stroke-linejoin="round" stroke-miterlimit="10" points="3.471,2.5 0.502,2.5 0.502,5.469" />
            <polyline fill="none" stroke-linecap="round" stroke-linejoin="round" stroke-miterlimit="10" points="23.502,5.469 23.502,2.5 20.533,2.5" />
            <polyline fill="none" stroke-linecap="round" stroke-linejoin="round" stroke-miterlimit="10" points="20.533,21.5 23.502,21.5 23.502,18.531" />
            <line x1="3.502" x2="3.502" y1="7" y2="17" fill="none" stroke-linejoin="round" stroke-miterlimit="10" />
            <line x1="5.502" x2="5.502" y1="7" y2="14" fill="none" stroke-linejoin="round" stroke-miterlimit="10" />
            <line x1="7.502" x2="7.502" y1="7" y2="14" fill="none" stroke-linejoin="round" stroke-miterlimit="10" />
            <line x1="10.502" x2="10.502" y1="7" y2="14" fill="none" stroke-linejoin="round" stroke-miterlimit="10" />
            <line x1="12.502" x2="12.502" y1="7" y2="14" fill="none" stroke-linejoin="round" stroke-miterlimit="10" />
            <line x1="14.502" x2="14.502" y1="7" y2="14" fill="none" stroke-linejoin="round" stroke-miterlimit="10" />
            <line x1="16.502" x2="16.502" y1="7" y2="14" fill="none" stroke-linejoin="round" stroke-miterlimit="10" />
            <line x1="18.502" x2="18.502" y1="7" y2="14" fill="none" stroke-linejoin="round" stroke-miterlimit="10" />
            <line x1="20.502" x2="20.502" y1="7" y2="17" fill="none" stroke-linejoin="round" stroke-miterlimit="10" />
            <polygon points="6,15 5.002,15 5.002,16 6,16 6,15"/>
            <polygon points="8,15 7.002,15 7.002,16 8,16 8,15"/>
            <polygon points="11,15 10.002,15 10.002,16 11,16 11,15"/>
            <polygon points="13,15 12.002,15 12.002,16 13,16 13,15"/>
            <polygon points="15,15 14.002,15 14.002,16 15,16 15,15"/>
            <polygon points="17,15 16.002,15 16.002,16 17,16 17,15"/>
            <polygon points="19,15 18.002,15 18.002,16 19,16 19,15"/>
        </g>
        <g id="Invisible_Shape">
            <rect fill="none" stroke="none" width="24" height="24"></rect>
        </g>
    </symbol>
    <symbol id="location2" viewBox="0 0 24 24">
        <g id="Outline_Icons">
            <path fill="none" stroke-linecap="round" stroke-linejoin="round" stroke-miterlimit="10" d="M19.5,8 c0,4.144-7.5,15.5-7.5,15.5S4.5,12.144,4.5,8c0-4.142,3.357-7.5,7.5-7.5C16.142,0.5,19.5,3.858,19.5,8z"/>
            <circle cx="12" cy="8" r="3" fill="none" stroke-linecap="round" stroke-linejoin="round" stroke-miterlimit="10"/>
        </g>
        <g id="Invisible_Shape">
            <rect fill="none" stroke="none" width="24" height="24"></rect>
        </g>
    </symbol>
    <symbol id="help" viewBox="0 0 24 24">
        <g id="Outline_Icons">
            <circle cx="11.5" cy="12.5" r="11" fill="none" stroke-linecap="round" stroke-linejoin="round" stroke-miterlimit="10"/>
            <path fill="none" stroke-linecap="round" stroke-linejoin="round" stroke-miterlimit="10" d="M8.5,10 c0-1.656,1.343-3,3-3c1.656,0,3,1.344,3,3c0,1.658-1.344,3-3,3v3"/>
            <path fill="none" stroke-linejoin="round" stroke-miterlimit="10" d="M12,18.5c0,0.276-0.224,0.5-0.5,0.5l0,0 c-0.276,0-0.5-0.224-0.5-0.5l0,0c0-0.276,0.224-0.5,0.5-0.5l0,0C11.776,18,12,18.224,12,18.5L12,18.5z"/>
        </g>
        <g id="Invisible_Shape">
            <rect fill="none" stroke="none" width="24" height="24"></rect>
        </g>
    </symbol>
    <symbol id="mint" viewBox="0 0 24 24">
        <g id="Outline_Icons">
  <path fill="none" stroke-linejoin="round" stroke-miterlimit="10" d="M16.5,1c-1.369,1.367-3.635,1.367-5,0 l-1,1l9.5,9.5L23.5,8L16.5,1z"/>
  <rect width="3.536" height="20.153" x="7.107" y="4.549" fill="none" stroke-linejoin="round" stroke-miterlimit="10" transform="rotate(45.001 8.875 14.625)"/>
        </g>
        <g id="Invisible_Shape">
            <rect fill="none" stroke="none" width="24" height="24"></rect>
        </g>
    </symbol>
    <symbol id="XXXX" viewBox="0 0 24 24">
        <g id="Outline_Icons">

        </g>
        <g id="Invisible_Shape">
            <rect fill="none" stroke="none" width="24" height="24"></rect>
        </g>
    </symbol>
</svg>