<!-- "display: none" ensures the SVG doesn't take up space even though it's not being shown because of the use of symbol -->
<svg xmlns="http://www.w3.org/2000/svg" style="display:none;">
    <symbol id="map" viewBox="0 0 24 24">
        <g>
            <polygon fill="none" stroke-linecap="round" stroke-linejoin="round" stroke-miterlimit="10" points="8.5,22.5     1.5,17.5 1.5,1.5 8.5,6.5 15.5,1.5 22.5,6.5 22.5,22.5 15.5,17.5   "></polygon>
            <line fill="none" stroke-linecap="round" stroke-linejoin="round" stroke-miterlimit="10" x1="8.5" y1="6.5" x2="8.5" y2="22.5"></line>
            <line fill="none" stroke-linecap="round" stroke-linejoin="round" stroke-miterlimit="10" x1="15.5" y1="17.5" x2="15.5" y2="1.531"></line>
        </g>
        <g id="Invisible_Shape">
            <rect fill="none" stroke="none" width="24" height="24"></rect>
        </g>
    </symbol>
    <symbol id="wallet" viewBox="0 0 24 24">
        <g id="Outline_Icons">
            <path fill="none" stroke-linecap="round" stroke-linejoin="round" stroke-miterlimit="10" d="M1.297,1.453    L14.59,4.772c1.601,0.4,2.91,2.077,2.91,3.728v12c0,1.65-1.314,2.69-2.92,2.312L3.42,20.188C1.814,19.809,0.5,18.15,0.5,16.5v-13    c0-1.651,1.35-3,3-3h17c1.65,0,3,1.349,3,3v11c0,1.65-1.35,3-3,3h-3"></path>
            <line fill="none" stroke-linecap="round" stroke-linejoin="round" stroke-miterlimit="10" x1="9.5" y1="3.5" x2="19.5" y2="3.5"></line>
            <circle fill="none" stroke-linecap="round" stroke-linejoin="round" stroke-miterlimit="10" cx="13" cy="13.5" r="2"></circle>
            <line fill="none" stroke-linecap="round" stroke-linejoin="round" stroke-miterlimit="10" x1="17.5" y1="8.5" x2="19.5" y2="8.5"></line>
        </g>
        <g id="Invisible_Shape">
            <rect fill="none" stroke="none" width="24" height="24"></rect>
        </g>
    </symbol>
    <symbol id="buy" viewBox="0 0 24 24">
        <g id="Outline_Icons">
            <polygon fill="none" stroke-linecap="round" stroke-linejoin="round" stroke-miterlimit="10" points="    20.512,22.5 3.512,22.5 1.512,11.5 22.512,11.5   "></polygon>
            <rect x="0.512" y="9.5" fill="none" stroke-linecap="round" stroke-linejoin="round" stroke-miterlimit="10" width="23" height="2"></rect>
            <line fill="none" stroke-linecap="round" stroke-linejoin="round" stroke-miterlimit="10" x1="3.512" y1="7.5" x2="9.512" y2="1.5"></line>
            <line fill="none" stroke-linecap="round" stroke-linejoin="round" stroke-miterlimit="10" x1="20.512" y1="7.5" x2="14.512" y2="1.5"></line>
            <line fill="none" stroke-linecap="round" stroke-linejoin="round" stroke-miterlimit="10" x1="13.512" y1="13.5" x2="13.512" y2="19.5"></line>
            <line fill="none" stroke-linecap="round" stroke-linejoin="round" stroke-miterlimit="10" x1="17.512" y1="13.5" x2="17.512" y2="19.5"></line>
            <line fill="none" stroke-linecap="round" stroke-linejoin="round" stroke-miterlimit="10" x1="10.512" y1="13.5" x2="10.512" y2="19.5"></line>
            <line fill="none" stroke-linecap="round" stroke-linejoin="round" stroke-miterlimit="10" x1="6.512" y1="13.5" x2="6.512" y2="19.5"></line>
        </g>
        <g id="Invisible_Shape">
            <rect fill="none" stroke="none" width="24" height="24"></rect>
        </g>
    </symbol>
    <symbol id="sell" viewBox="0 0 24 24">
        <g id="Outline_Icons">
            <path fill="none" stroke-linecap="round" stroke-linejoin="round" stroke-miterlimit="10" d="M10.5,23.5h-10v-1    c0-0.551,0.448-1,1-1h8c0.553,0,1,0.449,1,1V23.5z"></path>
            <path fill="none" stroke-linecap="round" stroke-linejoin="round" stroke-miterlimit="10" d="M9.5,21.5h-8v-1    c0-0.551,0.448-1,1-1h6c0.553,0,1,0.449,1,1V21.5z"></path>
            <rect x="7.611" y="5.416" transform="matrix(0.7071 -0.7071 0.7071 0.7071 -2.2116 10.443)" fill="none" stroke-linecap="round" stroke-linejoin="round" stroke-miterlimit="10" width="7.778" height="4.95"></rect>
            <path fill="none" stroke-linecap="round" stroke-linejoin="round" stroke-miterlimit="10" d="M7,8.891l-0.5-0.5    c-0.942-0.94-2.445,0.555-1.5,1.5l4.5,4.5c0.943,0.942,2.446-0.555,1.5-1.5l-0.5-0.5"></path>
            <path fill="none" stroke-linecap="round" stroke-linejoin="round" stroke-miterlimit="10" d="M16,6.891l0.5,0.5    c0.943,0.942,2.446-0.555,1.5-1.5l-4.5-4.5c-0.942-0.94-2.445,0.555-1.5,1.5l0.5,0.5"></path>
            <line fill="none" stroke-linecap="round" stroke-linejoin="round" stroke-miterlimit="10" x1="13.25" y1="9.641" x2="23.5" y2="19.891"></line>
        </g>
        <g id="Invisible_Shape">
            <rect fill="none" stroke="none" width="24" height="24"></rect>
        </g>
    </symbol>
    <symbol id="location" viewBox="0 0 12 12">
        <g id="Outline_Icons">
            <path fill-rule="evenodd" clip-rule="evenodd" d="M6 11.2222C6 11.2222 10 8.33333 10 5.22222C10 2.89067 8.33156 1 6 1C3.668 1 2 2.89067 2 5.22222C2 8.33333 6 11.2222 6 11.2222ZM8.22228 5.00005C8.22228 6.22735 7.22735 7.22228 6.00005 7.22228C4.77275 7.22228 3.77783 6.22735 3.77783 5.00005C3.77783 3.77275 4.77275 2.77783 6.00005 2.77783C7.22735 2.77783 8.22228 3.77275 8.22228 5.00005Z" fill="white"/>
        </g>
    </symbol>
    <symbol id="XXXX" viewBox="0 0 24 24">
        <g id="Outline_Icons">

        </g>
        <g id="Invisible_Shape">
            <rect fill="none" stroke="none" width="24" height="24"></rect>
        </g>
    </symbol>
    <symbol id="XXXX" viewBox="0 0 24 24">
        <g id="Outline_Icons">

        </g>
        <g id="Invisible_Shape">
            <rect fill="none" stroke="none" width="24" height="24"></rect>
        </g>
    </symbol>
    <symbol id="XXXX" viewBox="0 0 24 24">
        <g id="Outline_Icons">

        </g>
        <g id="Invisible_Shape">
            <rect fill="none" stroke="none" width="24" height="24"></rect>
        </g>
    </symbol>
    <symbol id="XXXX" viewBox="0 0 24 24">
        <g id="Outline_Icons">

        </g>
        <g id="Invisible_Shape">
            <rect fill="none" stroke="none" width="24" height="24"></rect>
        </g>
    </symbol>
</svg>