<?xml version="1.0" encoding="UTF-8" standalone="no" ?>
<!DOCTYPE svg PUBLIC "-//W3C//DTD SVG 1.1//EN" "http://www.w3.org/Graphics/SVG/1.1/DTD/svg11.dtd">
<svg xmlns="http://www.w3.org/2000/svg" xmlns:xlink="http://www.w3.org/1999/xlink" version="1.1" width="350" height="350" viewBox="0 0 350 350" xml:space="preserve">
<desc>Created with Fabric.js 1.7.22</desc>
<defs>
</defs>
<g id="icon" style="stroke: none; stroke-width: 1; stroke-dasharray: none; stroke-linecap: butt; stroke-linejoin: miter; stroke-miterlimit: 10; fill: none; fill-rule: nonzero; opacity: 1;" transform="translate(-1.9444444444444287 -1.9444444444444287) scale(3.89 3.89)" >
	<circle cx="45" cy="45" r="45" style="stroke: none; stroke-width: 1; stroke-dasharray: none; stroke-linecap: butt; stroke-linejoin: miter; stroke-miterlimit: 10; fill: rgb(255,200,67); fill-rule: nonzero; opacity: 1;" transform="  matrix(1 0 0 1 0 0) "/>
	<circle cx="45" cy="45" r="37.5" style="stroke: none; stroke-width: 1; stroke-dasharray: none; stroke-linecap: butt; stroke-linejoin: miter; stroke-miterlimit: 10; fill: rgb(211,135,0); fill-rule: nonzero; opacity: 1;" transform="  matrix(1 0 0 1 0 0) "/>
	<path d="M 60.833 31.306 c -0.352 -0.833 -1.168 -1.375 -2.072 -1.375 H 38.753 V 24 c 0 -1.243 -1.007 -2.25 -2.25 -2.25 s -2.25 1.007 -2.25 2.25 v 5.931 h -7.014 c -1.243 0 -2.25 1.007 -2.25 2.25 s 1.007 2.25 2.25 2.25 h 7.014 v 14.956 c 0 2.732 1.393 4.858 3.726 5.689 c 0.708 0.251 1.472 0.371 2.246 0.371 c 2.192 0 4.47 -0.959 5.801 -2.593 c 0.784 -0.963 0.64 -2.38 -0.323 -3.165 c -0.964 -0.786 -2.381 -0.641 -3.166 0.323 c -0.542 0.665 -2.056 1.179 -3.05 0.823 c -0.239 -0.085 -0.735 -0.261 -0.735 -1.449 V 34.431 h 14.683 l -8.921 9.176 c -0.638 0.656 -0.815 1.634 -0.447 2.473 c 0.368 0.837 1.216 1.354 2.123 1.345 c 4.172 -0.114 6.471 0.337 7.683 1.514 c 1.219 1.184 1.79 3.583 1.796 7.562 c 0.019 2.837 -1.085 4.985 -3.191 6.213 c -2.26 1.317 -5.438 1.389 -7.557 0.171 c -1.218 -0.7 -1.836 -1.68 -1.836 -2.91 c 0 -1.242 -1.007 -2.25 -2.25 -2.25 s -2.25 1.008 -2.25 2.25 c 0 2.834 1.492 5.316 4.094 6.812 c 1.715 0.985 3.737 1.476 5.785 1.476 c 2.179 0 4.386 -0.555 6.281 -1.66 c 3.526 -2.057 5.453 -5.654 5.424 -10.119 c -0.008 -5.334 -0.983 -8.656 -3.161 -10.771 c -1.55 -1.505 -3.565 -2.236 -5.769 -2.565 l 9.135 -9.396 C 61.004 33.101 61.186 32.139 60.833 31.306 z" style="stroke: none; stroke-width: 1; stroke-dasharray: none; stroke-linecap: butt; stroke-linejoin: miter; stroke-miterlimit: 10; fill: rgb(255,200,67); fill-rule: nonzero; opacity: 1;" transform=" matrix(1 0 0 1 0 0) " stroke-linecap="round" />
</g>
</svg>