<svg width="405" height="403" viewBox="0 0 405 403" fill="none" xmlns="http://www.w3.org/2000/svg">
<g clip-path="url(#clip0)">
<path d="M111.038 125.035C110.717 127.279 111.038 129.524 110.396 131.447H110.075C111.038 132.089 113.926 130.806 115.21 130.806C117.136 130.806 119.382 131.768 118.74 129.203C118.098 125.035 113.926 122.791 112.001 119.585C111.68 121.509 111.359 123.112 111.038 125.035Z" fill="#592B06"/>
<path d="M329.584 157.096H330.226C329.905 156.775 329.905 156.775 329.584 156.775C329.584 156.775 329.584 156.775 329.584 157.096Z" fill="#592B06"/>
<path d="M322.845 155.814C325.412 155.814 327.659 155.173 329.584 156.455C329.584 151.005 330.547 145.555 330.547 140.425C329.263 140.105 325.412 142.99 324.128 143.952C321.561 145.234 318.673 146.196 316.426 148.761C314.501 151.005 313.538 152.929 316.426 154.532C318.352 155.494 320.598 155.814 322.845 155.814Z" fill="#592B06"/>
<path d="M398.582 181.142L393.768 179.539C381.252 176.012 366.49 176.012 353.332 175.05C323.807 173.447 295.246 178.577 268.93 191.401C241.331 204.867 209.881 229.553 199.933 260.652C192.872 282.453 187.417 307.46 190.947 330.544C194.477 354.909 207.314 378.955 206.993 403.321C220.472 400.435 231.062 384.085 245.182 379.275C245.182 379.275 256.094 386.329 269.893 374.146C288.827 357.795 307.762 338.879 330.226 332.467C354.937 325.414 365.206 299.124 378.043 291.109C388.633 266.102 375.155 260.652 385.424 242.057C398.582 218.653 391.521 201.019 398.582 181.142Z" fill="#6D390A"/>
<path d="M269.893 374.146C276.311 368.375 283.051 362.284 289.79 356.834C290.432 347.536 292.037 338.239 293.32 328.941C294.925 318.04 297.171 305.216 292.999 294.636C291.074 290.148 279.521 281.171 279.521 281.171C275.67 292.713 275.349 315.476 272.14 327.338C269.251 338.559 266.684 350.101 264.758 361.643C264.117 365.811 263.475 369.978 263.154 374.146C263.154 376.711 263.154 377.673 263.154 377.673C263.154 377.994 263.475 377.994 263.475 378.314C265.721 377.352 267.968 375.749 269.893 374.146Z" fill="#592B06"/>
<path d="M280.162 291.429C280.162 318.681 279.2 350.1 271.818 372.542C276.311 368.374 281.125 364.206 285.939 360.359C286.902 352.665 288.185 344.65 289.469 336.634C291.074 324.131 282.73 302.009 280.162 291.429Z" fill="#471F04"/>
<path d="M356.22 275.399C353.011 290.147 352.69 304.895 351.406 319.963C362.318 309.704 369.699 296.559 378.364 291.109C388.954 266.102 375.475 260.651 385.745 242.056C398.903 218.652 391.842 201.019 398.903 181.141L394.089 179.538C393.768 179.538 393.447 179.218 392.805 179.218C385.103 183.706 377.401 188.515 370.02 193.645C375.475 193.645 380.289 194.927 385.424 196.851C391.2 198.775 392.484 205.507 389.596 209.355C384.14 234.362 361.676 250.392 356.22 275.399Z" fill="#592B06"/>
<path d="M392.163 226.347C385.424 237.889 378.043 248.789 370.341 260.011C366.169 275.72 361.676 291.109 357.825 306.819C364.885 294.636 373.229 283.735 382.536 273.476C383.178 261.614 378.364 255.202 385.745 241.736C388.633 236.607 390.559 231.477 392.163 226.347Z" fill="#471F04"/>
<path d="M205.388 283.414C204.746 283.414 204.425 283.414 203.784 283.414C202.5 312.268 202.179 341.123 201.216 369.657C204.426 380.878 206.993 391.778 206.993 402.999C213.411 401.717 219.188 397.229 224.643 392.419C224.643 390.496 224.322 388.893 224.322 386.969C223.681 378.313 223.36 369.656 220.471 361.321C218.225 354.588 213.732 347.855 212.448 340.802C208.277 316.757 217.262 297.2 231.383 279.887C223.039 281.49 214.374 282.131 205.388 283.414Z" fill="#592B06"/>
<path d="M302.306 346.894C307.441 343.368 312.575 340.162 317.71 337.276C318.031 331.185 318.673 325.093 319.315 319.002C321.24 304.254 325.733 292.071 330.547 277.964C335.04 265.461 331.831 251.996 336.003 239.813C339.212 230.194 343.705 221.538 346.272 211.92C340.495 215.126 333.435 217.37 327.338 217.37C320.278 217.37 312.896 216.408 305.836 218.653C306.157 218.653 285.297 223.462 290.432 226.027C291.716 226.027 297.492 227.63 298.455 228.271C299.097 228.591 315.143 227.95 315.143 227.95C303.269 256.163 305.836 297.201 303.59 327.017C303.911 333.429 302.948 340.162 302.306 346.894Z" fill="#592B06"/>
<path d="M302.306 346.895C303.589 345.933 304.873 344.971 306.157 344.33C306.799 332.467 308.403 320.605 309.687 308.743C310.971 295.919 311.612 283.094 314.18 270.27C318.673 248.469 323.486 233.08 340.816 218.653C342.1 217.37 343.704 217.05 345.309 216.729C345.951 215.126 346.272 213.844 346.593 212.241C340.816 215.447 333.756 217.691 327.658 217.691C320.598 217.691 313.217 216.729 306.157 218.973C306.478 218.973 285.618 223.782 290.753 226.347C292.036 226.347 297.813 227.95 298.776 228.592C299.417 228.912 315.463 228.271 315.463 228.271C303.589 256.484 306.157 297.522 303.91 327.338C303.91 333.429 302.948 340.162 302.306 346.895Z" fill="#471F04"/>
<path d="M254.489 310.345C260.586 294.636 258.661 278.606 269.572 262.896C272.139 259.369 289.148 239.492 289.79 235.645C277.595 240.133 241.973 263.858 234.913 275.4C236.197 288.224 237.48 301.048 237.159 313.872C236.838 326.696 234.913 339.52 236.517 352.345C237.48 361.963 239.085 371.26 240.368 380.878C241.652 380.237 242.615 379.596 243.899 379.275C243.257 369.016 245.824 359.398 247.429 349.139C249.996 335.994 249.675 323.49 254.489 310.345Z" fill="#592B06"/>
<path d="M266.363 252.316C266.363 251.675 266.363 251.034 266.684 250.393C254.489 254.881 241.973 263.858 235.234 275.4C236.518 288.224 237.801 301.048 237.48 313.872C237.159 326.696 235.234 339.521 236.838 352.345C237.801 361.963 239.406 371.261 240.69 380.879C241.652 380.237 242.936 379.917 243.899 379.276C242.936 355.23 242.615 331.506 243.578 307.46C244.22 285.018 255.131 270.911 266.363 252.316Z" fill="#471F04"/>
<path d="M203.784 262.254C193.514 234.362 151.795 209.355 126.121 197.172C100.448 184.989 65.4676 185.309 37.8685 183.706C30.4874 183.386 24.3899 183.065 17.6506 180.821C17.6506 203.263 18.2925 226.988 28.8828 246.224C33.0548 254.239 37.8685 284.055 46.8543 301.048C52.9517 312.589 59.0492 310.024 68.9977 313.872C84.0809 319.963 91.783 341.444 117.456 355.871C126.763 361.001 132.54 373.825 151.474 380.237C162.385 383.763 175.864 381.519 175.864 381.519C187.096 386.008 187.417 396.267 207.314 403.32C207.956 381.199 206.03 358.115 206.03 334.39C205.709 312.91 211.165 282.132 203.784 262.254Z" fill="#915922"/>
<path d="M100.768 344.008C105.261 348.176 110.717 352.023 117.135 355.871C122.591 358.756 127.084 364.848 133.823 370.298C129.009 358.436 124.516 346.253 121.307 333.428C117.456 317.078 115.852 299.765 111.359 283.414C111.359 283.735 111.359 283.735 111.359 284.055C113.605 292.391 114.568 302.65 113.605 312.589C113.605 326.375 110.717 339.199 100.768 344.008Z" fill="#6D390A"/>
<path d="M205.388 286.62C201.858 284.055 196.723 279.888 192.23 278.926C192.23 279.246 192.23 279.567 192.551 280.208C192.872 280.849 192.872 281.17 193.193 281.811C193.835 282.452 194.477 282.773 194.798 283.735C207.635 301.689 202.5 323.81 203.142 344.65C203.784 362.604 206.03 380.237 207.314 397.87C207.635 377.351 206.03 356.192 206.03 334.39C206.03 320.925 208.276 303.612 207.956 287.903C206.672 287.582 206.03 286.941 205.388 286.62Z" fill="#AA692E"/>
<path d="M190.626 393.702C189.342 378.954 187.738 364.206 187.096 349.138C186.775 342.405 187.417 335.031 187.738 327.657C183.887 315.474 180.036 302.971 178.431 290.147C175.222 281.17 172.334 270.91 178.752 265.781C180.357 264.498 182.282 263.537 183.887 262.895C182.603 262.254 181.64 261.613 180.036 260.972C175.222 263.857 170.087 265.46 164.632 266.422C173.938 292.391 178.11 319.322 177.468 346.573C177.468 346.894 177.789 347.214 177.789 347.214C179.394 352.023 178.11 357.474 177.147 362.283C177.147 362.603 177.147 363.245 177.147 363.565C177.147 369.657 176.827 375.428 176.185 381.198C182.603 384.725 185.491 389.214 190.626 393.702Z" fill="#AA692E"/>
<path d="M20.218 181.783C19.2552 181.462 18.6134 181.462 17.6506 181.142C17.6506 203.584 18.2925 227.309 28.8828 246.545C33.0548 254.56 37.8685 284.376 46.8543 301.368C50.3844 308.101 53.9145 310.025 58.0865 311.307C49.1007 292.391 32.4129 263.216 42.3614 244.301C36.5849 240.133 27.92 229.873 27.92 229.873C27.92 231.477 23.7481 218.652 23.1063 204.866C22.7853 198.454 22.7853 192.042 23.7481 185.63C22.4644 184.027 21.1807 183.065 20.218 181.783Z" fill="#AA692E"/>
<path d="M86.9691 329.582C87.2901 319.643 88.2528 309.704 88.2528 299.766C88.2528 277.003 78.3043 254.881 86.6482 233.08C84.7227 231.156 83.1181 229.233 81.8344 227.309C77.0206 224.424 72.5278 220.576 67.3931 218.332C67.3931 221.538 67.0721 224.744 66.7512 227.63C66.7512 227.95 66.7512 228.271 66.7512 228.591C71.2441 241.416 73.4905 254.24 75.737 267.705C76.0579 268.346 76.3788 268.988 76.3788 269.629C77.0206 272.835 77.6625 276.041 77.9834 279.247C78.6252 280.209 79.2671 281.491 79.2671 283.094C79.9089 296.239 81.5135 309.384 80.5507 322.529C82.7972 324.773 84.7227 327.017 86.9691 329.582Z" fill="#AA692E"/>
<path d="M76.6996 202.622C69.6394 201.34 51.9889 199.096 50.3843 199.096C51.668 211.92 52.9516 224.744 56.1608 237.248C59.6909 250.392 66.4302 261.934 70.9231 275.079C76.0578 290.468 78.6252 306.498 80.8716 322.849C82.1553 324.132 83.439 325.414 84.7226 326.696C84.0808 300.727 82.7971 274.758 77.3415 249.11C74.1323 234.683 72.8486 229.874 71.5649 220.576C72.5277 218.973 77.9833 202.943 76.6996 202.622Z" fill="#7F491C"/>
<path d="M76.6996 202.622C69.6394 201.34 29.5245 188.836 27.9199 188.836C33.3755 198.133 47.1751 204.866 52.3098 206.469C65.1465 210.958 65.1465 219.614 67.393 229.553C70.6022 242.698 73.4904 256.163 76.0578 269.308C79.5879 286.62 83.4389 306.177 83.118 325.093C83.4389 325.734 84.0808 326.055 84.4017 326.696C83.7599 300.727 82.4762 274.758 77.0206 249.11C73.8114 234.682 72.8486 229.232 71.5649 219.935C72.8486 218.652 77.9833 202.943 76.6996 202.622Z" fill="#592B06"/>
<path d="M196.403 255.522C183.245 255.843 142.488 249.751 145.698 258.087C155.004 271.552 164.632 291.43 170.729 328.941C173.618 346.574 173.618 363.886 175.864 381.52C176.506 381.84 178.752 382.802 179.394 383.443C180.357 374.146 181.641 364.528 182.282 354.909C184.529 327.979 175.543 297.842 173.297 270.911C172.976 270.911 192.231 260.972 196.403 255.522Z" fill="#7F491C"/>
<path d="M196.402 255.522C183.245 255.843 120.666 231.477 108.15 235.645L123.233 246.545C136.711 251.675 158.213 270.591 157.892 270.911C161.101 272.835 172.333 299.445 174.58 310.346C179.073 333.109 181.319 358.757 176.826 382.161C177.468 382.482 178.11 382.802 178.752 383.123C179.715 373.825 180.998 364.207 181.64 354.589C183.887 327.658 174.901 297.522 172.654 270.591C172.975 270.911 192.23 260.973 196.402 255.522Z" fill="#592B06"/>
<path d="M322.203 258.728C321.24 267.385 325.412 310.666 323.166 318.681C331.189 318.361 329.263 316.437 337.286 315.796C343.705 315.155 358.146 281.491 364.564 279.247C370.983 277.003 383.499 269.308 387.35 263.537C391.201 258.087 390.88 253.278 393.768 247.507C396.656 241.416 399.865 241.416 404.037 235.965C408.209 230.195 399.865 210.638 399.865 210.638L368.094 222.179C364.564 223.783 361.355 224.744 357.825 226.347C355.9 226.989 353.974 227.95 352.369 228.592C344.988 231.798 337.286 234.683 329.584 236.927C329.263 236.927 329.263 236.927 328.942 236.927C328.3 237.248 327.659 237.248 327.338 237.248L326.696 237.568C326.696 237.568 327.017 246.225 326.375 248.469C325.412 251.675 322.524 254.561 322.203 258.728Z" fill="#824B19"/>
<path d="M338.57 295.597C336.644 302.33 335.04 309.063 334.398 316.116C335.04 316.116 336.002 315.795 337.286 315.795C337.928 315.795 338.891 315.154 339.853 314.513C342.742 301.689 348.839 290.147 354.937 278.285C359.429 269.308 362.959 260.331 366.169 251.033C367.773 246.865 370.02 244.3 362.639 243.659C358.788 243.339 354.937 243.018 351.085 243.018C356.22 249.751 360.713 254.88 356.22 264.819C351.085 275.079 341.458 284.376 338.57 295.597Z" fill="#93552B"/>
<path d="M337.607 315.475C344.346 312.91 358.146 281.491 364.243 278.926C370.662 276.682 383.177 268.988 387.028 263.217C390.88 257.766 390.559 252.957 393.447 247.186C396.335 241.095 399.544 241.095 403.716 235.645C407.888 229.874 399.544 210.317 399.544 210.317C399.544 209.355 378.685 217.691 362.639 230.836C359.109 234.683 362.318 244.622 362.318 245.583C362.96 258.087 360.713 264.82 351.086 278.606C343.383 290.148 339.532 302.651 337.607 315.475Z" fill="#683411"/>
<path d="M337.607 315.475C340.495 314.193 344.988 307.46 349.481 300.086C346.272 287.262 355.578 275.079 363.601 264.499C366.169 256.484 368.094 248.148 371.945 240.774C371.945 240.774 371.624 240.774 371.624 240.454C370.983 239.812 370.02 239.171 369.378 238.851C366.811 238.209 363.922 239.171 361.355 239.812C361.676 242.698 362.318 245.263 362.318 245.904C362.96 258.407 360.713 265.14 351.086 278.926C343.383 290.147 339.532 302.651 337.607 315.475Z" fill="#592B06"/>
<path d="M302.948 355.871C307.12 352.665 309.366 333.429 312.575 319.643C315.464 307.46 332.793 290.788 333.114 278.285L332.472 278.926C324.449 272.193 315.143 279.567 308.082 282.453C298.455 285.979 288.185 282.773 279.2 281.17C278.558 288.544 280.483 298.803 281.125 306.818C281.767 315.475 285.297 352.024 285.618 360.359C292.036 362.604 296.85 360.359 302.948 355.871Z" fill="#683411"/>
<path d="M304.232 309.063C309.366 296.559 322.845 292.712 332.151 284.055C332.793 282.452 333.114 280.529 333.114 278.926C324.77 285.979 314.18 291.109 303.269 292.391C303.269 292.712 303.269 293.032 303.269 293.353C296.85 315.475 295.246 337.917 294.604 360.68C296.53 360.039 298.455 359.077 300.701 357.794C300.701 347.856 301.343 337.917 301.985 327.978C302.306 321.887 301.985 314.513 304.232 309.063Z" fill="#592B06"/>
<path d="M296.85 359.718C296.85 333.749 301.022 304.574 309.366 279.887C300.38 282.452 287.544 282.773 279.2 281.17C278.558 288.544 280.483 298.803 281.125 306.818C281.767 315.474 285.297 352.023 285.618 360.359C289.79 361.641 293.32 361.321 296.85 359.718Z" fill="#824B19"/>
<path d="M294.604 360.68C295.567 360.359 296.208 360.039 297.171 359.718C297.171 338.879 300.059 315.795 305.515 294.635C301.343 294.956 297.171 294.635 293.641 293.032C299.739 301.689 299.097 310.665 297.492 320.925C294.925 334.07 294.925 347.214 294.604 360.68Z" fill="#93552B"/>
<path d="M57.4443 266.102C58.4071 275.079 63.8627 287.262 67.7137 295.918C71.2439 303.934 75.0949 312.269 79.2668 324.452C80.2296 324.452 82.1551 325.414 83.1179 325.414C83.1179 314.834 83.4388 306.178 81.5133 295.598C77.6622 273.156 75.4158 264.82 72.8485 253.599C68.0347 256.805 62.9 264.179 57.4443 266.102Z" fill="#6D390A"/>
<path d="M73.1695 255.202C73.1695 254.56 72.8486 254.24 72.8486 253.599C68.0348 256.805 62.9001 264.179 57.7654 266.102C58.7281 275.079 64.1838 287.262 68.0348 295.918C71.5649 303.934 75.4159 312.269 79.5879 324.452C79.9088 324.452 80.2297 324.452 80.5506 324.773C77.6624 312.269 74.7741 300.086 71.5649 287.583C70.2812 282.774 68.0348 276.682 68.9976 271.873C69.9603 266.102 72.8486 260.973 73.1695 255.202Z" fill="#5B2B07"/>
<path d="M36.9058 259.048C44.9287 269.949 54.2354 280.208 59.0492 292.071C63.2211 302.009 68.3558 321.246 79.2671 324.452C75.0952 307.46 66.7513 285.338 63.2211 273.155C61.6165 266.422 49.4216 246.224 36.9058 259.048Z" fill="#7F491C"/>
<path d="M36.9058 259.048C37.2267 259.369 37.2267 259.369 37.5476 259.69C38.1894 259.69 38.5104 259.69 39.1522 260.01C56.1609 267.384 62.9002 277.002 68.0349 294.315C70.6023 303.292 74.1324 311.307 77.9834 319.643C78.3043 320.284 78.6253 320.925 78.6253 321.566C74.1324 305.216 66.7512 285.017 63.5421 273.155C61.6165 266.422 49.4216 246.224 36.9058 259.048Z" fill="#935527"/>
<path d="M191.589 377.672C191.268 361 197.686 341.764 201.216 326.375C192.552 326.696 191.268 315.795 188.7 308.742C186.133 302.009 184.529 293.032 182.282 287.261L181.319 286.62C183.887 294.315 183.887 303.612 186.454 311.948C187.417 315.475 188.38 319.001 189.984 322.528C190.626 323.81 190.947 325.413 191.91 326.375C192.872 327.658 195.44 327.657 195.761 328.94C196.723 330.864 194.156 335.993 193.514 338.237C192.231 342.405 191.589 345.611 191.589 350.1C191.589 355.229 191.91 360.359 191.589 365.168C191.268 369.015 189.984 374.145 191.589 377.672Z" fill="#7F491C"/>
<path d="M106.866 257.766C106.224 254.56 105.582 238.53 104.62 235.645C102.052 234.041 97.2385 234.362 94.3503 233.4C92.7457 232.759 86.0064 231.797 86.9691 233.08L86.6482 232.438C87.611 235.645 86.6482 255.201 86.6482 258.407C88.5737 258.087 92.4247 245.904 94.6712 245.904C94.9921 251.995 95.9548 257.766 94.0293 262.896C100.127 266.423 97.8804 271.873 97.2385 277.964C96.5967 285.018 101.41 280.85 100.769 287.903C100.448 293.674 95.6339 309.704 96.5967 315.475C96.5967 315.475 101.09 327.017 100.769 330.543C100.769 331.185 101.09 330.543 101.41 329.902C97.2385 314.834 102.052 299.765 106.545 285.018C106.545 282.132 106.545 278.926 106.545 276.041C106.545 273.796 106.545 271.873 106.866 269.629C105.582 262.575 107.187 265.461 106.866 257.766Z" fill="#6D390A"/>
<path d="M330.226 140.425C309.366 117.983 281.446 117.342 264.116 102.273C255.452 94.8993 216.941 75.9837 206.672 69.251C183.245 83.3576 166.236 83.037 155.967 96.5024C146.018 109.968 125.8 111.571 111.68 119.586C112.322 121.51 114.247 125.998 115.21 128.242C97.2385 125.036 75.095 143.952 57.7654 155.494C42.6822 165.432 16.6877 179.86 16.6877 179.86C36.2638 201.34 53.2725 204.867 73.1695 208.073C74.4532 211.92 69.3185 217.691 71.8858 223.782C80.2297 242.698 143.13 250.713 158.213 268.026C161.743 272.194 180.677 262.576 180.677 262.576C180.677 266.102 172.975 270.591 172.975 270.591C191.589 281.171 200.254 292.071 208.277 290.789C215.979 289.506 237.159 277.003 244.219 272.514C257.698 264.179 261.87 255.522 276.311 250.072C293.962 243.339 303.269 243.019 316.105 227.309C308.724 226.668 302.306 225.065 294.925 225.065C313.217 216.729 334.719 222.5 353.011 211.599C367.452 202.943 382.215 184.027 398.903 180.821C393.126 174.73 378.685 163.829 342.1 146.196L319.315 150.364C321.882 148.44 328.3 142.99 330.226 140.425Z" fill="#93B40D"/>
<path d="M142.809 128.562C129.33 128.883 116.493 131.448 103.015 129.204C99.4847 130.166 95.9546 131.448 92.7454 133.372C100.127 134.975 107.508 136.578 115.21 136.898C124.516 137.539 134.144 136.898 143.451 138.501C156.287 140.425 165.273 145.875 168.482 156.776C174.58 148.44 176.184 138.822 163.989 133.372C157.571 130.486 150.19 128.562 142.809 128.562Z" fill="#84990A"/>
<path d="M188.38 142.989C194.477 135.295 198.007 126.318 205.068 119.585C210.844 114.135 220.793 110.608 228.495 108.364C240.69 105.158 252.885 103.876 265.4 102.914C265.079 102.593 264.759 102.273 264.438 102.273C262.191 100.349 258.019 97.4636 252.564 94.5781C217.262 100.67 165.595 114.456 188.38 142.989Z" fill="#84990A"/>
<path d="M71.8861 216.408C71.2442 218.653 70.9233 221.217 72.207 223.782C73.8116 227.309 77.0208 230.194 81.5136 233.08C89.5366 226.668 99.1642 222.5 109.113 219.614C115.852 211.92 121.629 204.546 122.912 194.287C121.949 194.287 120.987 194.607 120.024 194.607C108.792 208.073 89.8575 220.897 71.8861 216.408Z" fill="#84990A"/>
<path d="M149.548 186.912C147.623 187.874 145.376 188.836 143.13 189.477V189.798C142.488 193.004 142.809 195.248 143.772 197.171C144.413 196.851 145.376 196.53 146.66 196.851C149.869 197.813 152.757 198.454 155.967 199.416C170.408 198.133 186.133 200.057 196.723 209.996C197.044 209.996 197.686 210.316 198.007 210.316C199.612 209.675 201.537 209.034 203.142 208.393C189.663 197.171 172.975 194.286 155.646 189.798C155.325 189.798 155.325 189.798 155.325 189.798C151.795 190.439 150.511 189.156 149.548 186.912Z" fill="#84990A"/>
<path d="M358.788 154.851C354.295 152.607 349.481 150.042 344.026 147.478C332.152 151.004 319.315 151.966 306.478 151.645C285.618 154.21 263.475 152.607 245.824 145.233C230.099 142.669 211.807 136.898 214.053 122.791C211.807 124.073 209.56 125.676 207.956 127.6C208.277 128.241 208.277 128.883 207.956 129.844C207.635 131.127 207.314 132.409 207.314 133.371C207.956 134.333 207.956 135.295 207.635 136.256C214.695 161.905 312.896 164.47 358.788 154.851Z" fill="#84990A"/>
<path d="M285.618 201.019C291.716 200.057 297.171 200.057 303.59 200.699C318.031 202.622 331.831 207.431 344.667 201.981C347.235 200.378 349.481 198.775 352.049 197.172C352.69 193.325 353.011 189.478 353.332 185.63C348.839 191.081 340.496 193.004 331.189 192.363C322.203 191.722 313.217 189.798 303.911 188.836C301.985 188.516 299.739 188.516 297.813 188.516C297.171 188.516 296.53 188.516 295.567 188.836C287.544 189.798 280.484 190.439 273.744 186.913C272.461 186.592 270.856 185.951 269.572 184.989L269.251 184.668C266.042 191.722 262.191 202.943 273.103 202.302C277.274 202.302 281.446 201.981 285.618 201.019Z" fill="#84990A"/>
<path d="M89.5368 172.485C76.3791 171.523 60.0122 170.882 51.0265 160.302C47.1754 162.867 42.6826 165.432 38.8315 167.676C45.2499 171.523 51.9892 174.729 59.0494 177.294C66.7515 178.897 74.4536 180.5 82.1556 182.745C86.0067 183.065 90.1786 183.386 94.3506 183.706C116.173 183.706 138.637 185.309 155.646 170.882C154.362 170.882 153.4 171.203 152.116 171.203C131.898 178.256 110.717 173.768 89.5368 172.485Z" fill="#84990A"/>
<path d="M116.494 245.262C112.643 244.621 108.471 243.98 104.62 243.339C104.299 243.339 103.657 243.339 103.336 243.339C108.471 245.262 113.926 247.186 119.061 248.789C118.74 248.469 118.419 248.469 118.098 248.148C117.135 247.507 116.494 246.545 116.494 245.262Z" fill="#43D7EF"/>
<path d="M254.168 261.934C247.429 268.667 216.941 285.98 207.635 287.903C200.895 289.186 198.328 281.171 180.357 272.194C176.185 269.949 185.491 261.614 186.133 259.69C179.715 260.652 173.617 262.576 167.199 265.14C164.632 266.102 158.855 266.102 156.93 264.179C141.525 249.11 100.448 240.774 89.5365 235.965C83.4391 233.08 74.7742 227.63 73.8115 220.576C73.1696 216.409 75.4161 212.882 76.6998 209.035C78.6253 203.264 68.9977 204.546 66.1094 203.905C55.5191 201.661 27.2782 192.684 17.0088 180.18C36.5849 201.661 53.5936 205.187 73.4906 208.393C74.7742 212.241 69.6395 218.012 72.2069 224.103C80.5508 243.019 143.451 251.034 158.534 268.346C162.064 272.514 180.998 262.896 180.998 262.896C180.998 266.423 173.296 270.911 173.296 270.911C191.91 281.491 200.575 292.392 208.598 291.109C216.3 289.827 237.48 277.323 244.54 272.835C258.019 264.499 262.191 255.843 276.632 250.393C294.283 243.66 303.59 243.339 316.426 227.63C309.045 226.988 302.627 225.385 295.246 225.385C313.538 217.05 335.04 222.821 353.332 211.92C364.885 204.867 376.759 191.401 389.596 184.669C380.61 186.592 372.266 194.928 364.885 200.058C354.295 207.752 345.63 214.485 332.151 216.088C323.808 217.37 300.701 219.935 296.85 222.179C293.32 224.424 290.111 226.027 293.962 226.347C304.231 227.309 312.254 229.233 312.254 229.233C294.283 244.942 275.028 243.98 269.893 247.507C263.475 251.675 259.303 256.805 254.168 261.934Z" fill="#BAE64A"/>
<path d="M385.424 255.522C384.782 258.087 386.066 262.896 385.103 265.461C385.745 264.82 386.387 263.858 387.029 263.217C390.88 257.766 390.559 252.957 393.447 247.186C396.335 241.095 399.544 241.095 403.716 235.645C407.888 229.874 399.544 210.317 399.544 210.317C399.544 209.996 398.903 210.317 397.619 210.637C395.693 215.126 392.805 219.614 389.275 222.82C391.842 227.95 394.41 234.362 393.768 235.645C390.88 244.622 387.67 249.431 385.424 255.522Z" fill="#592B06"/>
<path d="M369.378 270.269C376.117 257.125 382.535 244.3 385.745 230.194C379.326 231.797 369.699 229.232 362.959 230.194C360.713 232.759 373.55 235.323 374.512 237.888C374.512 237.888 373.871 243.98 373.55 246.224C371.945 254.239 370.661 262.254 369.378 270.269Z" fill="#471F04"/>
<path d="M367.131 232.118C368.736 231.477 384.14 232.118 386.066 231.477C396.977 226.668 397.298 220.576 399.865 216.088C403.716 209.355 395.372 206.79 384.461 207.752C372.266 221.859 345.63 231.156 326.375 237.248C332.151 243.019 341.779 238.21 346.914 241.736C354.295 246.866 362.639 246.225 362.639 246.225C362.639 246.225 371.303 241.095 374.513 238.21C376.117 236.607 364.243 233.401 367.131 232.118Z" fill="#A06422"/>
<path d="M362.318 243.98C358.788 244.301 350.123 239.813 346.593 239.492C339.854 238.851 342.1 240.133 335.361 238.851C333.114 238.53 329.905 236.927 327.659 236.607C327.017 236.927 326.696 236.927 326.054 237.248C331.831 243.019 341.458 238.21 346.593 241.736C353.974 246.866 362.318 246.225 362.318 246.225C362.318 246.225 370.983 241.095 374.192 238.21C375.797 236.607 364.244 233.721 366.811 232.118C368.416 231.477 383.82 232.118 385.745 231.477C394.731 227.309 396.656 222.5 398.261 218.332C393.768 225.385 388.313 229.874 372.267 227.95C369.057 228.591 366.169 229.233 362.639 230.515H362.318C364.244 232.118 365.527 234.683 368.095 235.645C374.834 237.889 364.885 243.66 362.318 243.98Z" fill="#C98441"/>
<path d="M309.045 294.957C314.18 293.033 330.868 284.377 333.114 279.568C336.003 272.835 312.575 269.949 307.12 271.873C307.12 271.873 299.418 276.041 295.567 277.644C291.074 279.568 284.655 281.812 279.521 280.85C279.842 282.132 280.804 284.377 282.088 285.659C287.544 292.392 301.343 298.163 309.045 294.957Z" fill="#A06422"/>
<path d="M309.045 294.956C313.538 293.353 326.696 286.621 331.51 281.811C317.068 292.712 292.999 296.239 281.125 281.17C280.484 281.17 279.842 281.17 279.521 280.85C279.842 282.132 280.804 284.376 282.088 285.659C287.544 292.391 301.343 298.162 309.045 294.956Z" fill="#C98441"/>
<path d="M43.0034 261.614C50.3845 263.537 57.4448 268.987 63.5422 273.155C67.7142 267.705 72.8489 261.614 72.8489 253.598C67.7142 251.354 61.2958 248.469 58.0866 243.66C46.5335 248.789 26.3156 259.049 43.0034 261.614Z" fill="#BA8342"/>
<path d="M60.6539 268.666C57.1238 265.46 48.1381 261.613 40.436 260.01C36.585 259.048 37.2268 257.766 36.9059 257.125C35.9432 259.048 37.5478 260.972 43.0034 261.613C50.3845 263.537 57.4448 268.987 63.5422 273.155C67.7142 268.025 72.528 261.934 72.8489 254.239C71.2443 259.369 69.9606 260.651 67.3932 265.14C66.1096 267.063 62.5795 270.269 60.6539 268.666Z" fill="#FCBF75"/>
<path d="M144.093 283.735C141.204 286.941 139.279 289.506 137.674 293.353C133.181 302.971 131.256 310.025 133.502 321.246C136.391 334.711 141.204 347.215 145.697 360.039C148.585 369.016 153.078 385.367 161.101 391.138C164.311 388.252 168.482 385.046 171.371 381.52C166.236 366.772 163.348 347.535 161.743 331.185C160.139 314.513 157.25 297.201 155.967 280.85C152.437 279.888 146.339 281.491 144.093 283.735Z" fill="#6D390A"/>
<path d="M156.288 283.415C156.288 282.774 156.288 282.132 155.967 281.491C152.437 279.888 146.339 281.491 144.093 283.735C141.204 286.941 139.279 289.506 137.674 293.353C133.181 302.972 131.256 310.025 133.502 321.246C136.391 334.711 141.204 347.215 145.697 360.039C148.585 369.016 153.078 385.367 161.101 391.138C163.99 388.573 167.199 386.008 169.766 383.123C159.176 375.108 158.534 360.36 154.041 347.536C150.19 336.635 146.981 326.376 147.302 314.513C147.623 303.292 152.437 295.277 155.325 284.697C155.646 284.377 155.967 284.056 156.288 283.415Z" fill="#5B2B07"/>
<path d="M137.674 289.506C132.86 286.621 125.8 285.338 120.345 282.132C115.852 279.247 94.3502 269.629 88.8945 270.27C89.8573 286.3 104.62 305.857 111.68 323.17C119.061 341.444 124.517 353.627 129.651 372.543C131.577 379.275 145.376 377.993 151.795 390.497L161.101 391.138C161.101 391.138 159.176 378.634 157.571 373.505C155.646 367.092 145.697 329.582 143.13 317.399C141.525 309.704 144.734 293.995 137.674 289.506Z" fill="#7F491C"/>
<path d="M141.525 295.598C137.674 296.88 133.503 296.88 129.331 296.88C141.846 308.422 144.735 328.941 147.623 344.971C150.511 361.001 156.609 375.749 160.139 391.458H161.102C161.102 391.458 159.176 378.955 157.571 373.825C155.646 367.413 145.697 329.902 143.13 317.719C142.167 311.948 143.451 302.33 141.525 295.598Z" fill="#935527"/>
<path d="M90.1781 266.744C84.4015 272.194 99.4847 289.827 108.15 294.316C117.135 298.804 129.33 299.766 139.279 298.483C148.264 297.522 156.287 280.53 156.287 280.53C150.832 277.003 139.279 275.4 130.935 269.95C120.024 262.896 106.866 255.522 106.866 255.522C101.089 261.293 95.9546 261.614 90.1781 266.744Z" fill="#BA8342"/>
<path d="M90.1781 266.742C84.4015 272.193 99.4847 289.826 108.15 294.314C117.135 298.803 129.33 299.765 139.279 298.482C146.339 297.841 152.757 286.94 155.325 282.452C143.451 297.2 132.539 299.123 110.075 291.108C103.336 288.543 87.9316 278.605 91.7827 265.46C91.4617 265.781 90.8199 266.422 90.1781 266.742Z" fill="#FCBF75"/>
<path opacity="0.46" d="M124.516 273.797C118.098 273.476 111.359 273.797 104.94 272.835C104.298 272.835 103.657 272.514 103.015 272.514H101.41C100.447 272.514 96.2755 273.476 95.9546 275.079C95.9546 276.041 101.731 277.323 102.694 277.644C104.298 277.964 104.94 278.285 106.224 278.926C107.187 279.567 108.15 279.888 109.433 279.888C112.001 280.209 114.568 279.888 117.135 279.888C118.419 279.888 119.382 279.888 120.665 279.888C121.949 279.888 123.233 279.247 124.516 278.926C126.763 278.285 129.33 278.926 131.256 277.644C132.218 277.003 132.86 276.041 131.898 275.079C130.614 273.476 126.442 273.797 124.516 273.797Z" fill="#662F0A"/>
<path d="M109.112 277.643C113.926 278.285 116.814 277.323 120.665 274.758C124.837 278.926 132.86 274.437 134.465 269.949C135.749 266.422 136.391 257.445 130.293 257.766C131.577 253.277 129.33 250.071 124.837 248.148C120.345 246.224 117.777 248.789 113.605 250.071C110.396 251.033 106.224 249.43 102.694 251.674C99.8058 253.598 96.9175 259.369 98.5221 262.254L98.2012 263.537C94.3501 264.178 94.0292 271.231 98.5221 270.59C97.2384 276.361 105.261 277.323 109.112 277.643Z" fill="#9BC90E"/>
<path d="M109.112 277.644C113.926 278.285 116.814 277.323 120.665 274.758C124.837 278.926 132.86 274.437 134.465 269.949C135.749 266.422 136.39 257.445 130.293 257.766C131.577 253.278 129.33 250.072 124.837 248.148C125.158 249.43 125.479 250.713 125.479 252.316V252.636C125.479 258.728 120.986 263.858 114.889 264.819C112.963 266.102 110.717 267.064 107.508 267.064C103.336 267.064 100.447 265.461 98.201 262.896L97.8801 263.537C94.0291 264.178 93.7082 271.231 98.201 270.59C97.2383 276.361 105.261 277.323 109.112 277.644Z" fill="#80B708"/>
<path d="M109.112 277.643C113.926 278.284 116.814 277.322 120.665 274.758C124.837 278.925 132.86 274.437 134.465 269.948C135.749 266.422 136.39 257.445 130.293 257.766C131.577 253.598 129.651 250.712 125.8 248.789C125.8 249.109 126.121 249.43 126.121 249.43C130.935 256.804 127.405 268.987 116.173 268.987C115.852 268.987 115.852 268.987 115.531 268.987C115.21 268.987 115.21 269.307 114.889 269.307C112.963 270.91 110.396 271.872 107.508 271.872C101.731 271.872 97.8802 268.666 96.2756 264.498C94.3501 266.422 94.671 270.91 98.522 270.59C97.2383 276.361 105.261 277.322 109.112 277.643Z" fill="#528402"/>
<g opacity="0.41">
<path opacity="0.41" d="M245.503 130.486C248.712 133.051 251.922 135.937 255.452 138.181C264.116 137.54 272.781 137.219 281.446 137.86C289.148 138.501 305.515 139.784 309.045 131.448C306.157 128.242 302.948 125.357 299.418 123.433C287.223 117.021 270.535 120.548 257.056 120.227C251.601 120.227 248.071 117.021 246.787 112.853C245.824 114.777 244.54 116.7 241.973 117.983C238.122 120.227 236.517 119.906 239.406 123.754C241.01 126.639 243.257 128.563 245.503 130.486Z" fill="#728407"/>
</g>
<path d="M172.012 117.341C160.78 116.7 149.548 117.341 138.316 115.738C137.353 115.738 136.39 115.096 135.107 115.096L132.218 114.776C130.293 115.096 123.233 116.379 123.233 118.944C123.233 120.547 132.86 123.112 135.107 123.432C137.674 124.073 139.279 124.394 141.204 125.676C143.13 126.959 144.413 126.959 146.66 127.279C151.153 127.6 155.325 127.6 160.138 127.279C162.064 127.279 163.989 127.279 166.236 127.279C168.482 127.279 170.408 126.318 172.654 125.676C176.184 124.394 180.998 125.676 184.207 123.753C185.812 122.791 186.775 121.188 185.17 119.264C182.282 116.379 175.542 117.341 172.012 117.341Z" fill="#748E09"/>
<path d="M145.697 124.073C153.72 125.035 158.855 123.432 165.273 119.264C172.333 126.318 186.133 118.623 189.021 111.249C191.589 105.158 192.23 89.7688 181.961 90.7306C184.207 83.3567 180.356 77.9064 172.654 74.3798C164.952 70.8531 160.459 75.3416 153.72 77.5858C148.264 79.5094 141.525 76.3034 135.107 80.4712C130.293 83.6773 125.158 93.616 127.726 98.7457L127.084 100.99C120.344 101.952 120.024 114.135 127.726 113.173C125.8 121.509 139.279 123.112 145.697 124.073Z" fill="#9BC90E"/>
<path d="M145.697 124.073C153.72 125.035 158.855 123.432 165.273 119.264C172.333 126.317 186.133 118.623 189.021 111.249C191.589 105.157 192.23 89.7684 181.961 90.7302C184.207 83.3563 180.356 77.906 172.654 74.3794C172.654 74.3794 172.654 74.3794 172.333 74.3794C172.975 76.6236 173.617 78.8679 173.617 81.1121V81.7533C173.617 92.3333 165.594 100.99 155.646 102.593C152.436 104.837 148.264 106.44 143.13 106.44C136.07 106.44 130.935 103.554 127.405 99.3866L127.084 100.348C120.344 101.31 120.024 113.493 127.726 112.531C125.8 121.508 139.279 123.111 145.697 124.073Z" fill="#80B708"/>
<path d="M145.697 124.074C153.72 125.036 158.855 123.432 165.273 119.265C172.333 126.318 186.133 118.623 189.021 111.25C191.589 105.158 192.23 89.769 181.961 90.7308C183.887 83.9981 180.998 78.8684 174.58 75.3418C174.901 75.6624 174.901 76.3036 175.222 76.6242C183.245 89.1278 177.468 110.288 158.213 110.288C157.892 110.288 157.571 110.288 157.25 110.288C156.929 110.608 156.608 110.929 156.288 110.929C153.078 113.494 148.585 115.097 143.451 115.097C133.502 115.097 127.084 109.326 124.517 102.273C120.986 105.799 121.949 113.494 128.047 112.853C125.8 121.509 139.279 123.112 145.697 124.074Z" fill="#528402"/>
<path d="M272.14 108.044C269.251 106.441 266.684 104.517 264.438 102.593C263.475 101.632 262.191 100.67 260.586 99.708C242.294 100.67 223.039 104.517 206.993 112.212C199.291 115.738 187.738 121.509 186.454 131.127C184.208 146.837 203.784 160.302 216.621 164.47C220.151 165.432 223.681 166.394 227.211 167.356C241.331 170.882 249.996 173.768 256.735 179.539C263.475 185.309 253.526 191.722 244.861 196.851C231.383 201.981 218.867 209.996 203.784 207.752C185.17 205.187 168.162 196.531 149.228 194.928C146.339 194.607 144.735 192.042 146.018 189.157C152.437 176.653 167.841 173.447 172.334 159.02C179.394 134.654 155.967 133.051 138.958 133.692C124.838 134.333 108.792 136.578 94.6712 133.051C91.4621 134.654 87.9319 136.257 84.7228 138.181C101.411 146.837 122.912 136.898 140.242 143.951C149.548 147.799 157.892 153.249 155.967 164.47C154.362 175.05 138.958 178.577 129.651 181.142C117.777 181.462 105.582 180.18 98.8432 179.859C85.6855 178.897 52.9518 178.577 45.5706 164.15C39.7941 167.676 33.6966 171.203 28.8828 174.088C53.5936 195.248 101.731 178.577 117.136 195.889C117.457 196.851 117.777 197.813 118.098 198.775C117.457 201.34 116.494 203.904 116.173 204.546C108.792 216.087 86.9692 226.988 71.886 222.5C71.886 223.141 72.2069 223.782 72.5278 224.103C74.4533 228.27 78.6253 231.797 84.4018 235.003C92.7457 225.385 108.15 226.347 120.024 229.553C130.293 232.438 139.279 237.247 145.376 245.263C145.697 245.583 146.018 245.583 146.018 245.904C150.19 251.033 147.302 253.598 147.302 260.01C149.548 261.613 155.967 264.819 158.534 267.705C157.892 263.537 155.646 260.01 155.004 255.201C154.041 247.507 156.288 240.453 148.265 236.606C145.056 235.003 141.525 233.4 138.316 231.797C137.033 231.477 136.07 231.477 135.107 231.156C131.577 230.194 121.628 225.706 123.875 220.255C125.159 217.049 128.689 212.881 151.795 207.111C157.571 206.469 163.348 206.149 168.483 207.111C180.678 209.675 190.626 218.332 203.463 216.729C215.979 215.446 227.532 210.637 240.048 208.072C250.317 205.828 266.042 203.584 274.065 212.24C287.223 226.667 280.483 240.453 270.214 253.278C272.14 252.316 274.386 251.033 276.632 250.392C281.446 248.469 285.939 247.186 289.79 245.904C291.395 235.003 292.357 222.82 288.827 212.24C288.827 212.24 290.753 204.866 301.985 204.866C312.254 204.866 326.696 215.767 343.705 210.317C348.197 208.714 363.922 204.225 367.773 187.874C370.662 175.05 358.467 171.523 370.983 165.111C369.378 165.432 367.773 165.753 365.848 166.073C368.736 165.432 371.625 164.791 375.476 164.15C368.736 160.302 360.713 155.814 350.444 150.684C349.802 150.684 349.16 151.005 348.839 151.005C343.384 152.287 337.928 152.928 332.151 153.57C319.957 155.173 308.083 156.455 295.888 156.776C277.595 157.096 256.735 157.096 239.727 149.722C226.89 147.478 210.844 142.348 210.844 128.242C211.165 107.403 245.824 107.403 272.14 108.044ZM282.409 168.638C299.418 167.356 317.389 168.317 329.584 169.279C329.263 169.279 329.263 169.279 328.942 169.6C329.263 169.6 329.584 169.6 329.905 169.279C338.891 170.241 344.988 170.882 345.309 170.882C350.123 173.126 353.653 176.653 353.974 182.745C354.937 195.248 345.309 199.095 335.361 200.698C323.487 202.622 314.18 194.607 300.38 194.607C283.051 194.607 267.968 199.416 271.177 189.157C272.781 186.592 273.102 184.989 273.102 184.989C272.46 179.859 267.968 176.012 263.475 173.447C263.475 173.447 266.684 169.92 282.409 168.638Z" fill="#43D7EF"/>
<path d="M275.991 250.392C276.633 250.071 277.274 249.751 277.916 249.751C283.372 239.491 286.902 228.591 285.618 218.652C281.125 182.744 223.36 215.766 202.179 211.919C188.059 209.034 174.259 201.019 159.818 201.98C149.549 202.622 137.675 204.545 128.689 209.675C118.099 215.766 115.21 225.705 130.614 231.797C133.182 232.759 135.749 234.041 137.996 235.644C139.279 236.606 140.242 237.568 141.205 238.529C148.586 243.338 148.907 251.995 150.19 261.292C150.19 261.613 150.19 261.934 150.19 262.254C152.758 263.857 156.288 266.101 157.893 268.025C157.251 263.857 155.004 260.33 154.362 255.521C153.4 247.827 155.646 240.774 147.623 236.926C144.414 235.323 140.884 233.72 137.675 232.117C136.391 231.797 135.428 231.797 134.465 231.476C130.935 230.514 120.987 226.026 123.233 220.576C124.517 217.369 128.047 213.202 151.153 207.431C156.93 206.79 162.706 206.469 167.841 207.431C180.036 209.996 189.984 218.652 202.821 217.049C215.337 215.766 226.89 210.957 239.406 208.393C249.675 206.148 265.4 203.904 273.423 212.56C286.581 226.988 279.842 240.774 269.572 253.598C271.498 252.315 273.744 251.354 275.991 250.392Z" fill="#6BEEFC"/>
<path d="M143.772 137.54C137.674 136.578 131.577 136.257 125.8 136.257C112.963 138.181 99.4847 141.708 89.2153 135.295C87.6107 136.257 86.327 136.898 84.7224 137.86C101.41 146.517 122.912 136.578 140.241 143.631C149.227 147.478 157.25 152.608 156.287 163.188C162.385 153.57 160.459 140.425 143.772 137.54Z" fill="#6BEEFC"/>
<path d="M108.15 184.668C103.015 183.065 98.2013 182.103 92.7457 181.782C84.4018 181.141 76.0579 181.782 67.714 180.821C59.0492 179.859 51.3471 177.615 44.6078 173.767C41.3987 172.805 38.5104 171.523 35.943 169.279C33.3757 170.882 30.4874 172.485 28.241 173.767C52.9517 194.927 101.09 178.256 116.494 195.568C116.815 196.53 117.136 197.492 117.457 198.454C117.457 198.774 117.457 199.095 117.136 199.095C120.024 193.645 120.024 188.194 108.15 184.668Z" fill="#6BEEFC"/>
<path d="M203.142 118.944C218.867 108.044 241.973 103.555 263.796 102.273C262.833 101.632 261.87 100.67 260.586 99.708C242.294 100.67 223.039 104.517 206.993 112.212C199.291 115.738 187.738 121.509 186.454 131.127C184.208 146.837 203.784 160.302 216.621 164.47C220.151 165.432 223.681 166.394 227.211 167.356C237.801 170.241 245.182 172.485 251.28 175.691C245.824 157.417 211.165 160.623 199.933 145.554C192.873 135.936 193.514 125.677 203.142 118.944Z" fill="#6BEEFC"/>
<path d="M329.905 169.28C338.891 170.242 344.988 170.883 345.309 170.883C345.951 171.203 346.914 171.524 347.556 172.165C337.928 158.7 312.575 162.547 297.813 162.226C286.902 161.906 268.609 162.547 258.982 169.28C246.787 177.936 269.251 181.142 271.177 189.798V189.478C272.781 186.913 273.102 185.31 273.102 185.31C272.46 180.18 267.968 176.333 263.475 173.768C263.475 173.768 266.684 170.242 282.088 168.959C299.097 167.677 317.068 168.639 329.263 169.6C328.942 169.6 328.942 169.6 328.621 169.921C329.263 169.28 329.584 169.28 329.905 169.28Z" fill="#6BEEFC"/>
<path d="M369.057 160.623C356.22 165.112 360.392 182.424 356.22 193.966C346.272 220.897 307.12 194.607 290.111 207.111C290.432 207.752 290.753 208.073 290.753 208.714C292.678 206.79 295.887 204.866 301.343 204.866C311.612 204.866 326.054 215.767 343.063 210.317C347.555 208.714 363.28 204.225 367.131 187.874C370.02 175.05 357.825 171.524 370.341 165.112C368.736 165.432 367.131 165.753 365.206 166.073C368.094 165.432 370.982 164.791 374.834 164.15C373.229 162.867 371.303 161.905 369.057 160.623Z" fill="#6BEEFC"/>
<path d="M289.79 241.095C285.297 243.019 280.162 245.263 275.349 245.263C273.744 248.149 271.818 250.713 269.572 253.278C271.498 252.316 273.744 251.034 275.99 250.393C280.804 248.469 285.297 247.187 289.148 245.904C289.469 244.301 289.79 242.698 289.79 241.095Z" fill="#6DEEFC"/>
<path d="M71.5652 222.179C71.5652 222.82 71.8861 223.461 72.207 223.782C74.1325 227.95 78.3045 231.476 84.081 234.682C84.402 234.041 85.0438 233.72 85.3647 233.4C80.8718 230.835 77.3417 227.308 74.7744 222.82C73.8116 222.82 72.8489 222.499 71.5652 222.179Z" fill="#6DEEFC"/>
<path d="M146.981 260.011C149.228 261.614 155.646 264.82 158.213 267.705C157.892 265.781 157.251 264.178 156.609 262.255C153.721 260.331 150.832 258.087 147.302 256.484C146.981 257.446 146.981 258.408 146.981 260.011Z" fill="#6DEEFC"/>
<path opacity="0.64" d="M307.761 280.208C308.403 280.849 309.045 280.849 310.008 280.849C311.933 281.17 313.859 280.849 315.784 280.849C316.747 280.849 317.389 280.849 318.352 280.849C319.314 280.849 320.277 280.529 321.24 280.208C322.845 279.567 324.77 280.208 326.054 279.246C326.696 278.926 327.016 278.284 326.375 277.323C325.412 276.04 322.203 276.361 320.919 276.361C316.105 276.04 311.291 276.361 306.478 275.72C305.836 275.72 305.515 275.399 305.194 275.399H303.91C303.269 275.399 300.059 276.04 300.059 277.323C300.059 277.964 304.231 278.926 305.194 279.246C306.157 279.246 306.799 279.567 307.761 280.208Z" fill="#773910"/>
<path d="M301.985 274.438C301.022 278.285 306.799 278.926 309.687 279.247C313.217 279.567 315.142 278.926 318.031 277.323C321.24 280.529 327.016 277.002 328.3 273.796C329.263 271.232 329.584 264.499 325.091 264.819C326.054 261.613 324.449 259.369 321.24 257.766C318.031 256.163 316.105 258.087 313.217 259.049C310.97 260.01 307.761 258.407 305.194 260.331C302.947 261.613 301.022 266.102 301.985 268.025L301.664 268.987C298.776 269.628 298.776 274.758 301.985 274.438Z" fill="#9BC90E"/>
<path d="M314.18 269.95C314.18 269.95 313.859 269.95 314.18 269.95C312.896 270.912 310.971 271.553 308.724 271.553C305.836 271.553 303.589 270.27 301.985 268.667V268.988C299.097 269.309 299.097 274.438 302.306 274.118C301.343 277.965 307.12 278.606 310.008 278.927C313.538 279.247 315.463 278.606 318.352 277.003C321.561 280.209 327.337 276.683 328.621 273.477C329.584 270.912 329.905 264.179 325.412 264.5C326.375 261.294 324.77 259.049 321.561 257.446C321.882 258.408 322.203 259.37 322.203 260.332V260.652C321.882 265.461 318.352 269.309 314.18 269.95Z" fill="#80B708"/>
<path d="M315.142 273.155H314.821C314.501 273.155 314.501 273.475 314.501 273.475C313.217 274.437 311.291 275.399 309.045 275.399C304.873 275.399 301.985 272.834 300.701 269.949C299.096 271.552 299.738 274.758 302.306 274.437C301.343 278.284 307.119 278.926 310.008 279.246C313.538 279.567 315.463 278.926 318.352 277.323C321.561 280.529 327.337 277.002 328.621 273.796C329.584 271.231 329.905 264.499 325.412 264.819C326.375 261.934 325.091 259.689 322.203 258.086C322.203 258.407 322.523 258.407 322.523 258.728C325.733 264.178 323.486 273.155 315.142 273.155Z" fill="#528402"/>
<path opacity="0.46" d="M41.0779 261.293C42.3616 261.614 44.2871 261.934 45.5707 262.576C46.5335 257.446 53.5937 256.484 55.8402 251.996C53.9146 251.996 51.6682 251.996 49.7427 252.637H49.1009C46.8544 253.278 42.0406 258.408 41.0779 261.293Z" fill="#662F0A"/>
<path d="M15.7248 232.117C15.7248 231.797 15.7248 231.476 15.7248 231.155L15.083 232.438C15.4039 232.438 15.4039 232.117 15.7248 232.117Z" fill="#703F1E"/>
<path d="M15.7249 232.117C17.3294 242.697 34.3382 241.094 42.3611 243.338C45.8913 244.3 49.1005 248.468 49.1005 252.315C51.3469 253.277 53.5933 252.636 55.8398 251.674C50.3841 242.697 43.9657 241.415 42.6821 241.094C38.1892 239.812 33.0545 239.812 28.8825 237.888C24.3897 235.644 25.3524 231.476 22.4642 228.27C21.5014 231.797 25.0315 235.003 25.6733 237.888C20.8596 238.209 18.6131 235.003 15.7249 232.117Z" fill="#703F1E"/>
<path d="M17.9715 216.408H17.6506C16.046 214.484 9.30666 215.446 6.7393 216.729C3.20919 218.652 0 222.82 0 226.988C0 234.683 5.77655 235.965 12.5158 236.606C18.6133 236.927 23.1062 236.286 22.7853 229.553C34.3384 228.912 28.2409 212.881 17.9715 216.408Z" fill="#9BC90E"/>
<path d="M15.0832 226.347C13.4786 226.988 11.874 227.309 10.2694 227.63C7.38114 228.271 3.53011 226.668 1.28368 224.744C0.962758 224.424 0.641838 224.103 0.641838 224.103C0.320919 224.744 0 225.706 0 226.988C0 234.683 5.77655 235.965 12.5158 236.607C18.6133 236.927 23.1062 236.286 22.7853 229.553C30.4873 229.233 30.1664 222.179 25.9945 218.332C24.3899 220.256 22.4643 221.538 20.2179 222.821C18.9342 224.103 17.3296 225.385 15.0832 226.347Z" fill="#80B708"/>
<path d="M22.4643 225.705C22.1434 225.705 21.5016 225.705 21.1807 225.705C19.2552 228.591 16.3669 230.835 11.874 231.155C6.09746 231.797 2.24643 228.591 0.320919 224.743C0 225.385 0 226.026 0 226.988C0 234.682 5.77655 235.965 12.5158 236.606C18.6133 236.926 23.1062 236.285 22.7853 229.552C27.599 229.232 29.2036 226.346 28.8827 223.461L28.5618 223.782C26.6363 224.743 24.7108 225.385 22.4643 225.705Z" fill="#528402"/>
<path d="M163.347 242.698C178.431 245.904 185.17 262.576 199.29 262.896C213.411 263.217 217.583 258.087 229.457 256.484C241.01 254.881 259.944 254.881 265.079 247.828C270.213 240.774 222.076 240.454 210.843 241.095C201.537 241.416 192.872 242.698 183.886 241.095C175.863 239.813 177.147 235.324 168.803 235.324L169.766 234.362C164.952 236.286 155.645 241.095 163.347 242.698Z" fill="#748E09"/>
<path d="M231.062 203.905C228.815 199.416 222.718 199.096 217.904 200.378C215.337 201.019 212.448 202.623 211.165 204.546V205.187C207.314 203.905 201.858 201.981 197.365 202.623C191.589 203.584 190.305 209.355 184.849 210.638C179.394 212.241 174.58 210.317 169.445 212.882C164.631 215.447 162.064 219.294 160.78 224.744C159.497 229.553 159.497 235.324 163.669 238.53C167.52 241.416 173.296 239.492 177.468 241.736C182.282 244.942 182.603 251.034 187.096 254.881C191.91 258.728 198.649 259.37 204.746 259.37C213.411 259.37 220.15 256.805 227.211 252.637C233.308 249.11 236.517 249.751 243.578 250.072C255.773 250.713 269.572 246.545 263.795 231.798C261.549 226.347 258.982 223.141 254.168 219.935C252.563 218.653 250.959 218.012 249.354 216.729C245.824 214.164 245.503 213.202 240.689 212.241C238.764 211.92 233.95 211.92 232.666 210.638C230.099 208.714 232.345 206.149 231.062 203.905Z" fill="#9BC90E"/>
<path d="M214.695 243.018C212.127 243.018 209.881 242.377 208.276 241.095C207.634 241.736 206.993 242.377 206.351 242.698C205.388 243.339 204.104 243.66 203.141 243.98C201.858 244.621 200.253 244.942 198.649 244.942C192.551 244.942 187.737 240.133 187.096 234.362C186.454 233.08 186.133 231.797 185.812 230.515C183.886 231.477 181.961 232.118 179.714 232.118C177.468 232.118 175.542 231.477 173.617 230.515C172.654 230.515 171.691 230.835 170.408 230.835C167.199 230.835 164.31 229.553 162.064 227.309C161.422 226.668 160.78 226.026 160.459 225.065C159.176 229.874 159.176 235.644 163.668 238.53C167.519 241.415 173.296 239.492 177.468 241.736C182.282 244.942 182.603 251.034 187.096 254.881C191.909 258.728 198.649 259.369 204.746 259.369C213.411 259.369 220.15 256.804 227.21 252.637C233.308 249.11 236.517 249.751 243.577 250.072C255.772 250.713 269.572 246.545 263.795 231.797C261.549 226.347 258.981 223.141 254.168 219.935C253.205 219.294 251.921 218.652 250.958 218.011C249.996 221.538 248.07 224.103 245.503 226.026C245.503 229.232 244.54 232.118 242.294 234.362C237.801 238.851 230.42 238.851 225.927 234.362C224.322 239.171 220.792 243.018 214.695 243.018Z" fill="#80B708"/>
<path d="M219.188 249.11C218.867 249.43 218.867 249.43 218.546 249.751C214.374 253.919 207.314 254.24 202.821 250.392C201.216 251.675 198.649 252.637 196.081 252.637H195.44C187.737 252.637 183.886 246.545 184.207 240.454C183.245 240.454 182.603 240.454 181.64 240.454H180.998C176.184 240.454 172.333 237.568 170.408 233.4C165.915 233.08 161.743 230.194 160.138 226.026C159.176 230.515 159.176 235.965 163.348 238.851C167.199 241.736 172.975 239.812 177.147 242.057C181.961 245.263 182.282 251.354 186.775 255.201C191.589 259.049 198.328 259.69 204.425 259.69C213.09 259.69 219.829 257.125 226.89 252.957C232.987 249.43 236.196 250.072 243.257 250.392C254.489 251.034 266.684 247.507 264.437 235.965C263.474 237.568 262.191 239.171 260.265 240.133C258.019 241.415 255.131 241.736 252.563 241.415C250.317 243.339 247.428 244.942 244.54 244.942H243.257C240.368 244.942 237.48 243.66 235.554 241.736C233.629 244.942 229.778 247.186 225.606 247.186C224.001 247.186 222.718 246.866 221.113 246.224C220.471 247.507 220.15 248.469 219.188 249.11Z" fill="#528402"/>
<path d="M231.061 203.905C231.061 203.905 231.061 203.585 231.061 203.905C227.852 211.6 220.471 214.485 212.769 213.844C207.955 218.974 200.574 221.538 192.872 221.859C195.119 223.783 197.365 225.706 200.253 226.989C202.821 227.951 206.03 228.592 208.597 228.592C212.769 228.592 211.164 229.233 211.485 227.63C212.769 220.897 219.829 218.653 225.606 219.615C230.741 220.256 233.629 217.05 232.024 212.562C231.703 211.92 231.703 211.279 231.703 210.638C230.42 208.394 232.345 206.149 231.061 203.905Z" fill="#80B708"/>
<path d="M326.054 199.095C326.696 199.736 327.338 199.736 328.3 199.736C330.226 200.057 332.151 199.736 334.077 199.736C335.04 199.736 335.681 199.736 336.644 199.736C337.607 199.736 338.57 199.415 339.532 199.095C341.137 198.453 343.063 199.095 344.346 198.133C344.988 197.812 345.309 197.171 344.667 196.209C343.704 194.927 340.495 195.247 339.212 195.247C334.398 194.927 329.584 195.247 324.77 194.606C324.128 194.606 323.807 194.286 323.487 194.286H322.203C321.561 194.286 318.352 194.927 318.352 196.209C318.352 196.85 322.524 197.812 323.487 198.133C324.77 198.453 325.412 198.453 326.054 199.095Z" fill="#748E09"/>
<path d="M320.277 193.324C319.315 197.172 325.091 197.813 327.979 198.133C331.509 198.454 333.435 197.813 336.323 196.21C339.532 199.416 345.309 195.889 346.593 192.683C347.555 190.118 347.876 183.386 343.384 183.706C344.346 180.5 342.742 178.256 339.532 176.653C336.323 175.05 334.398 176.973 331.51 177.935C329.263 178.897 326.054 177.294 323.487 179.218C321.24 180.5 319.315 184.989 320.277 186.912L319.956 187.874C317.389 188.515 317.068 193.645 320.277 193.324Z" fill="#9BC90E"/>
<path d="M332.472 188.837C331.189 189.798 329.263 190.44 327.017 190.44C324.128 190.44 321.882 189.157 320.277 187.554V187.875C317.389 188.195 317.389 193.325 320.598 193.004C319.635 196.852 325.412 197.493 328.3 197.814C331.83 198.134 333.756 197.493 336.644 195.89C339.853 199.096 345.63 195.569 346.914 192.363C347.876 189.798 348.197 183.066 343.704 183.386C344.667 180.18 343.063 177.936 339.853 176.333C340.174 177.295 340.495 178.257 340.495 179.218V179.539C340.174 184.348 336.644 188.195 332.472 188.837Z" fill="#80B708"/>
<path d="M333.435 192.042H333.114C332.793 192.042 332.793 192.362 332.793 192.362C331.51 193.324 329.584 194.286 327.338 194.286C323.166 194.286 320.278 191.721 318.994 188.836C317.389 190.439 318.031 193.645 320.599 193.324C319.636 197.171 325.412 197.812 328.301 198.133C331.831 198.454 333.756 197.812 336.645 196.209C339.854 199.415 345.63 195.889 346.914 192.683C347.877 190.118 348.198 183.385 343.705 183.706C344.667 180.82 343.384 178.576 340.496 176.973C340.496 177.294 340.816 177.294 340.816 177.614C344.347 183.065 341.779 192.042 333.435 192.042Z" fill="#528402"/>
<path d="M213.091 85.6015C213.091 85.6015 213.412 85.6015 213.091 85.6015C213.091 85.2809 213.091 84.9603 213.091 84.6396L212.128 86.2427C213.091 85.9221 212.77 85.6015 213.091 85.6015Z" fill="#703F1E"/>
<path d="M245.183 99.3876C240.048 97.464 233.309 96.8228 228.495 93.9373C223.039 90.7313 224.644 85.6016 221.435 81.1131C219.83 85.281 224.002 89.4489 224.323 93.2961C218.867 92.9755 216.3 89.1283 213.091 85.281C214.054 98.4258 235.234 98.1052 244.541 101.952C249.997 104.197 253.527 111.25 251.28 116.7C250.317 118.945 244.862 121.83 241.653 124.715C249.355 120.868 258.34 121.189 267.326 121.83C266.042 119.906 262.512 118.303 261.229 116.059C259.945 113.815 259.303 110.609 258.982 107.723C258.34 101.952 258.661 94.8992 262.833 90.7313C267.005 86.884 273.103 84.6398 277.275 80.4719C278.879 78.8689 279.2 76.9453 279.521 74.7011C283.051 71.1744 290.432 64.4417 286.581 59.9532C285.619 62.5181 285.939 64.7623 284.656 67.3272C283.693 69.2508 281.447 70.5332 279.842 72.4568C279.842 67.6478 279.2 62.5181 281.447 58.9914C277.916 58.3502 278.558 72.7774 276.954 75.9835C274.707 80.4719 266.363 82.3956 262.191 84.6398C249.034 91.3725 242.615 79.1895 239.406 67.6478C239.085 66.6859 239.406 65.0829 239.406 64.1211C234.271 66.6859 240.048 76.9453 242.294 80.1513C245.183 84.3192 250.959 87.8458 253.206 92.3343C254.168 94.2579 254.489 99.067 252.564 100.67C250.959 102.594 247.75 100.349 245.183 99.3876Z" fill="#703F1E"/>
<path d="M277.274 3.52706C267.326 -0.961408 261.549 4.48887 252.884 7.69492C245.824 10.2598 237.159 6.09189 229.457 11.2216C223.039 15.3894 216.941 27.893 220.151 34.6257L219.188 37.1905C210.844 38.473 210.202 53.862 219.83 52.5796C217.262 64.1213 234.592 66.045 242.615 67.0068C252.884 68.2892 259.303 66.045 267.647 60.9153C276.632 70.2128 294.283 59.9535 298.134 50.6559C301.343 42.6408 302.306 23.4045 288.827 24.3664C292.037 14.7482 287.223 7.69492 277.274 3.52706Z" fill="#9BC90E"/>
<path d="M255.773 39.755C251.601 42.961 246.145 44.564 239.727 44.564C230.741 44.564 224.002 41.0374 219.83 35.5871L219.509 36.8695C211.165 38.152 210.523 53.541 220.151 52.2586C217.583 63.8003 234.913 65.724 242.936 66.6858C253.205 67.9682 259.624 65.724 267.968 60.5943C276.953 69.8918 294.604 59.6325 298.455 50.3349C301.664 42.3198 302.627 23.0835 289.148 24.0454C292.037 14.4272 287.223 7.37391 277.274 3.20605C277.274 3.20605 277.274 3.20605 276.954 3.20605C277.916 6.0915 278.558 8.97694 278.558 11.8624V12.8242C278.879 26.2896 268.61 37.5107 255.773 39.755Z" fill="#80B708"/>
<path d="M258.982 49.3733C258.661 49.3733 258.34 49.3733 257.698 49.3733C257.056 49.6939 256.735 50.0145 256.415 50.3351C252.243 53.5412 246.787 55.7854 240.048 55.7854C227.211 55.7854 219.188 48.7321 215.658 39.4346C211.165 43.923 212.449 53.8618 220.151 52.9C217.583 64.4417 234.913 66.3654 242.936 67.3272C253.205 68.6096 259.624 66.3654 267.968 61.2357C276.953 70.5332 294.604 60.2739 298.455 50.9763C301.664 42.9612 302.627 23.7249 289.148 24.6868C291.716 16.0304 287.865 9.29774 279.521 5.12988C279.842 5.77109 280.163 6.0917 280.483 6.73291C291.074 22.1219 283.693 49.3733 258.982 49.3733Z" fill="#528402"/>
<path d="M216.941 66.6857C215.016 64.1208 206.993 64.7621 203.784 66.0445C199.291 67.9681 194.798 72.4566 194.477 77.5862C193.514 87.2044 200.575 89.4486 208.918 90.4104C216.3 91.3722 222.076 91.0516 222.397 82.7159C236.517 83.3571 230.42 63.159 217.583 66.3651H216.941V66.6857Z" fill="#9BC90E"/>
<path d="M206.993 79.189C203.142 79.5096 198.649 77.2654 196.403 74.7006C196.082 74.38 195.761 74.0594 195.44 73.7388C194.798 75.0212 194.477 75.983 194.477 77.2654C193.514 86.8835 200.575 89.1278 208.918 90.0896C216.3 91.0514 222.076 90.7308 222.397 82.3951C232.025 82.7157 232.346 74.0594 227.532 68.9297C225.285 70.8533 222.718 72.4563 219.83 73.7388C217.904 75.6624 215.979 76.9448 213.09 77.9066C211.165 79.189 208.918 79.189 206.993 79.189Z" fill="#80B708"/>
<path d="M208.598 83.9977C201.537 83.9977 197.044 79.8299 195.119 74.7002C194.798 75.662 194.477 76.3032 194.477 77.265C193.514 86.8832 200.575 89.1274 208.918 90.0892C216.3 91.051 222.076 90.7304 222.397 82.3947C228.495 82.7153 230.741 79.1887 230.42 75.3414C230.099 75.3414 230.099 75.662 229.778 75.662C227.532 76.9444 224.964 77.5856 222.076 77.5856C221.434 77.5856 220.792 77.5856 220.472 77.5856C218.225 81.7535 214.053 83.9977 208.598 83.9977Z" fill="#528402"/>
<path d="M238.122 43.9227C238.443 43.9227 239.085 43.9227 239.085 43.9227C239.727 37.19 245.503 33.0221 244.861 25.3276C244.54 25.3276 243.899 25.3276 243.899 25.3276C243.578 27.5719 243.257 33.3428 241.01 34.9458C238.443 36.8694 234.271 33.6634 231.704 33.0221C232.345 36.2282 238.443 35.2664 239.085 38.4724V38.1518V39.1136C239.085 38.793 239.085 38.793 239.085 38.4724C238.122 40.3961 237.801 41.9991 238.122 43.9227Z" fill="#703F1E"/>
<path d="M217.262 7.0533C200.254 8.97693 201.858 36.2283 218.546 29.175C222.397 39.1138 229.778 36.8695 238.443 32.3811C248.071 27.2514 255.773 21.1599 250.317 9.93874C247.429 3.84726 240.048 0.320605 233.629 0C229.136 0 218.867 2.88544 217.904 6.7327L217.262 7.0533Z" fill="#9BC90E"/>
<path d="M218.546 29.1748C222.397 39.1136 229.778 36.8694 238.443 32.3809C248.071 27.2512 255.773 21.1597 250.317 9.93856C249.675 8.33554 248.713 7.05312 247.429 6.09131C247.108 6.41191 247.108 7.05312 246.787 7.37373C244.862 11.5416 240.369 16.6713 235.876 17.6331C233.308 18.2743 230.741 19.2361 227.853 19.5567C224.002 19.5567 220.793 18.9155 217.583 17.6331C213.732 17.6331 209.56 16.6713 206.03 15.3888C202.821 23.404 207.314 33.9839 218.546 29.1748Z" fill="#80B708"/>
<path d="M206.672 24.3662C206.351 24.3662 206.03 24.3662 205.709 24.0456C207.314 28.8546 211.486 31.7401 218.546 28.8546C222.397 38.7934 229.778 36.5491 238.443 32.0607C248.071 26.931 255.773 20.8395 250.317 9.61835C249.996 8.65654 249.034 7.69472 248.392 6.73291C248.392 13.7862 244.862 20.8395 235.876 24.0456C229.137 26.6104 223.36 25.328 218.867 22.1219C218.225 22.4425 217.583 22.7631 216.942 23.0837C213.412 24.6868 210.202 25.0074 206.672 24.3662Z" fill="#528402"/>
<path d="M298.134 56.4265C301.985 66.3652 309.366 64.121 318.031 59.6325C327.659 54.5029 335.361 48.4114 329.905 37.1902C327.017 31.0987 319.636 27.5721 313.217 27.2515C308.724 27.2515 298.455 30.1369 297.492 33.9842L296.85 34.3048C279.521 36.549 281.125 63.8004 298.134 56.4265Z" fill="#9BC90E"/>
<path d="M298.134 56.4263C301.985 66.365 309.366 64.1208 318.031 59.6324C327.659 54.5027 335.361 48.4112 329.905 37.19C329.263 35.587 328.301 34.3046 327.017 33.3428C326.696 33.984 326.696 34.3046 326.375 34.9458C324.449 39.1137 319.957 44.2433 315.464 45.2051C312.896 45.8464 310.329 46.8082 307.441 46.8082C303.59 46.8082 300.381 46.167 297.171 44.8845C293.32 44.8845 289.148 43.9227 285.618 42.6403C282.088 50.6554 286.581 61.2354 298.134 56.4263Z" fill="#80B708"/>
<path d="M298.134 56.4269C301.985 66.3656 309.367 64.1214 318.031 59.6329C327.659 54.5033 335.361 48.4118 329.905 37.1906C329.264 36.2288 328.622 35.267 327.98 34.3052C327.98 41.3585 324.45 48.4118 315.464 51.6178C308.725 54.1827 302.948 52.9002 298.455 49.6942C297.813 50.0148 297.172 50.3354 296.53 50.656C293.321 51.9384 289.79 52.259 286.26 51.6178C285.939 51.6178 285.619 51.6178 285.298 51.2972C286.581 56.4269 290.753 59.6329 298.134 56.4269Z" fill="#528402"/>
<path d="M306.478 71.4944C318.673 72.1356 313.217 54.823 302.306 57.7084H301.664C300.06 55.4642 292.999 56.1054 290.432 57.0672C286.581 58.6702 282.73 62.8381 282.409 67.006C281.767 75.3417 287.544 76.9447 294.925 78.2271C301.022 78.8683 306.157 78.5477 306.478 71.4944Z" fill="#9BC90E"/>
<path d="M306.478 71.4939C314.501 71.8145 314.822 64.4406 310.971 59.9521C309.045 61.5552 306.799 63.1582 304.552 64.12C302.948 65.723 301.022 66.6848 298.776 67.6467C297.171 68.2879 295.246 68.2879 293.641 68.2879C290.432 68.6085 286.581 66.6848 284.335 64.4406C284.014 64.12 284.014 63.7994 283.693 63.4788C283.372 64.4406 283.051 65.4024 282.73 66.6848C282.088 75.0206 287.865 76.6236 295.246 77.906C301.022 78.8678 306.157 78.5472 306.478 71.4939Z" fill="#80B708"/>
<path d="M306.478 71.4943C311.613 71.8149 313.538 68.9295 313.217 65.7234C313.217 65.7234 312.896 66.044 312.575 66.044C310.65 67.3265 308.403 67.6471 306.157 67.9677C305.515 67.9677 305.194 67.9677 304.552 67.9677C302.627 70.8531 299.097 73.0973 294.283 73.0973C288.186 73.0973 284.334 69.5707 282.73 65.4028C282.409 66.044 282.409 66.6853 282.088 67.6471C281.446 75.9828 287.223 77.5858 294.604 78.8682C301.022 78.8682 306.157 78.5476 306.478 71.4943Z" fill="#528402"/>
<path d="M94.0294 200.057C87.611 199.737 81.5135 200.057 75.416 199.096C74.7742 199.096 74.4533 198.775 73.4905 198.775H71.8859C70.9232 198.775 66.7512 199.737 66.7512 201.019C66.7512 201.981 72.2068 203.263 73.1696 203.584C74.7742 203.905 75.416 203.905 76.6997 204.866C77.6625 205.508 78.6252 205.508 79.9089 205.828C82.4763 206.149 84.7227 205.828 87.2901 205.828C88.5737 205.828 89.5365 205.828 90.4993 205.828C91.7829 205.828 92.7457 205.187 94.0294 204.866C95.9549 204.225 98.5222 204.866 100.448 203.584C101.411 202.943 101.731 202.302 101.09 201.019C99.8059 199.416 95.9549 200.057 94.0294 200.057Z" fill="#748E09"/>
<path d="M79.2668 203.584C83.7596 204.225 86.6479 203.263 90.178 201.019C94.029 204.866 101.731 200.698 103.336 196.53C104.619 193.004 105.261 184.668 99.4847 184.988C100.768 180.821 98.5219 177.615 94.35 176.012C89.8571 174.088 87.6107 176.653 83.7596 177.935C80.5504 178.897 77.0203 177.294 73.4902 179.538C70.6019 181.462 68.0346 186.912 69.3183 189.798L68.9973 191.08C65.4672 191.721 65.1463 198.454 69.3183 197.813C68.0346 202.301 75.7366 203.263 79.2668 203.584Z" fill="#9BC90E"/>
<path d="M79.2668 203.584C83.7596 204.225 86.6479 203.263 90.178 201.019C94.029 204.866 101.731 200.698 103.336 196.53C104.619 193.004 105.261 184.668 99.4847 184.989C100.768 180.821 98.5219 177.615 94.35 176.012C94.6709 177.294 94.9918 178.577 94.9918 179.859V180.18C94.9918 185.95 90.4989 191.08 85.0433 191.721C83.1178 193.004 80.8714 193.966 77.9831 193.966C74.132 193.966 71.2438 192.363 69.3183 190.118L68.9973 190.76C65.4672 191.401 65.1463 198.133 69.3183 197.492C68.0346 202.301 75.7366 203.263 79.2668 203.584Z" fill="#80B708"/>
<path d="M79.267 203.584C83.7599 204.225 86.6482 203.263 90.1783 201.019C94.0293 204.866 101.731 200.698 103.336 196.531C104.62 193.004 105.261 184.668 99.485 184.989C100.769 181.142 98.8431 178.256 95.313 176.333C95.313 176.653 95.6339 176.653 95.6339 176.974C100.127 184.027 96.9176 195.889 86.0063 195.889C85.6854 195.889 85.6854 195.889 85.3645 195.889C85.0436 195.889 85.0436 196.21 84.7227 196.21C82.7972 197.813 80.5507 198.454 77.6625 198.454C72.2068 198.454 68.6767 195.248 67.0721 191.401C65.1466 193.325 65.7884 197.492 68.9976 197.172C68.0349 202.301 75.7369 203.263 79.267 203.584Z" fill="#528402"/>
<path opacity="0.28" d="M88.8947 169.28C90.4993 170.562 93.3876 169.6 94.9922 169.6C100.127 169.28 104.941 168.639 110.075 168.959C118.74 169.28 126.763 173.127 135.107 170.883C138.958 169.921 156.609 163.83 153.079 159.662C151.474 157.738 144.093 158.059 142.167 157.738C136.391 156.776 137.674 156.135 134.465 152.608C129.01 147.479 122.912 149.402 116.173 149.402C110.075 149.402 104.299 147.479 98.5223 149.082C93.0667 150.685 86.6483 151.005 81.1927 152.608L84.4018 151.647C80.2299 152.929 62.5793 155.494 66.1095 162.547C64.5049 163.188 63.5421 164.15 62.5793 165.112C68.6768 168.959 83.1182 159.662 88.8947 164.791C88.5738 165.112 86.9692 167.677 88.8947 169.28Z" fill="#476362"/>
<path d="M43.9658 120.547C43.9658 120.226 43.9658 119.906 43.9658 119.585L43.324 121.188C43.6449 120.547 43.324 120.547 43.9658 120.547Z" fill="#703F1E"/>
<path d="M105.261 116.059C106.545 114.456 107.187 112.532 107.508 110.288C111.038 106.761 118.098 100.67 114.247 96.1813C113.284 98.4255 113.605 100.99 112.321 103.235C111.359 105.158 109.112 106.441 107.828 108.044C107.828 103.555 107.187 98.4255 109.112 95.2195C105.582 94.8989 106.545 108.364 104.94 111.57C102.694 115.738 94.9917 117.662 90.8198 119.906C78.3039 126.318 72.2065 114.456 68.9973 103.555C68.6764 102.593 68.9973 100.99 68.9973 100.349C64.1835 102.914 69.6391 112.532 71.8856 115.738C74.7738 119.906 80.2295 123.112 82.4759 127.28C83.4386 128.883 83.7596 133.692 82.155 134.974C80.2295 136.577 77.0203 134.654 74.7738 133.692C69.6391 132.089 63.5417 131.127 59.0488 128.562C53.9141 125.677 55.5187 120.547 52.6304 116.379C51.0258 120.227 54.8768 124.395 55.1978 128.242C49.7421 127.921 47.8166 124.074 44.6074 120.547C45.2493 133.051 65.4672 132.73 74.4529 136.577C79.5876 138.501 83.1177 145.234 80.8713 150.684C79.9085 152.928 74.7738 155.493 71.5646 158.379C78.9458 154.852 87.6106 154.852 95.9545 155.814C94.9917 153.89 91.4616 152.608 90.1779 150.363C88.8943 148.119 88.2524 145.234 87.9315 142.669C87.2897 136.898 87.6106 130.486 91.7825 126.318C95.6336 122.15 101.41 120.227 105.261 116.059Z" fill="#703F1E"/>
<path d="M72.2067 102.915C81.8343 104.197 87.9318 101.953 96.2757 97.1437C104.94 105.8 121.628 96.1819 125.158 87.2049C128.047 79.5104 129.009 61.2359 116.494 62.1978C119.061 53.2208 114.568 46.4881 105.261 42.3203C95.6338 38.1524 90.1782 43.2821 82.1552 46.1675C75.4159 48.4118 67.072 44.8851 59.6909 49.6942C53.5934 53.5414 47.8169 65.7244 50.7052 71.8159L49.7424 74.3807C41.7194 75.6632 41.0776 90.0904 50.3842 89.1285C48.1378 100.029 64.5047 101.953 72.2067 102.915Z" fill="#9BC90E"/>
<path d="M72.2067 102.915C81.8343 104.197 87.9318 101.953 96.2757 97.1437C104.94 105.8 121.628 96.1819 125.158 87.205C128.047 79.5105 129.009 61.236 116.494 62.1978C119.061 53.2209 114.568 46.4882 105.261 42.3203C105.261 42.3203 105.261 42.3203 104.941 42.3203C105.903 44.8851 106.545 47.7706 106.545 50.656V51.2972C106.545 64.1214 96.9175 74.7014 84.7226 76.625C80.8716 79.5104 75.7369 81.4341 69.6394 81.4341C60.9746 81.4341 54.8771 77.9074 50.7052 73.0984L50.3842 74.3808C42.3613 75.6632 41.7194 90.0904 51.0261 89.1286C48.1378 100.029 64.5047 101.953 72.2067 102.915Z" fill="#80B708"/>
<path d="M72.2066 102.914C81.8341 104.197 87.9316 101.952 96.2755 97.1433C104.94 105.8 121.628 96.1815 125.158 87.2046C128.047 79.5101 129.009 61.2356 116.493 62.1974C119.061 53.8617 115.21 47.4496 107.508 43.2817C107.829 43.9229 108.15 44.2436 108.47 44.8848C118.098 59.9532 111.359 85.9221 87.6107 85.9221C87.2898 85.9221 86.9689 85.9221 86.327 85.9221C86.0061 86.2428 85.3643 86.5634 85.0433 86.884C81.1923 90.09 75.7367 92.0136 69.3183 92.0136C57.1234 92.0136 49.4213 85.2809 46.2121 76.304C42.0402 80.4719 43.0029 89.7694 50.705 89.1282C48.1376 100.029 64.5045 101.952 72.2066 102.914Z" fill="#528402"/>
<path d="M47.8167 102.273H47.4958C45.8912 99.7083 37.8682 100.349 34.98 101.632C30.4871 103.556 26.3152 107.723 25.9942 112.853C25.0315 121.83 31.7708 124.074 39.7938 125.036C46.854 125.998 52.3096 125.677 52.6305 117.662C66.1091 118.303 60.3326 99.3876 47.8167 102.273Z" fill="#9BC90E"/>
<path d="M43.6448 113.495C41.7193 114.136 39.7938 114.136 37.8682 114.457C34.3381 114.777 30.1662 112.533 27.5988 110.289C27.2779 109.968 26.957 109.647 26.957 109.327C26.3152 110.289 25.9942 111.571 25.9942 112.853C25.0315 121.83 31.7708 124.075 39.7938 125.036C46.854 125.998 52.3096 125.678 52.6305 117.663C61.6163 117.983 61.9372 109.647 57.4443 104.838C55.5188 106.762 52.9514 108.365 50.0632 109.327C48.4586 111.571 46.5331 112.853 43.6448 113.495Z" fill="#80B708"/>
<path d="M50.705 113.494C48.4586 116.7 44.6075 119.265 39.4728 119.265C32.7335 119.265 28.2407 115.417 26.6361 110.608C26.3152 111.25 26.3152 112.211 25.9942 112.853C25.0315 121.83 31.7708 124.074 39.7938 125.036C46.854 125.997 52.3096 125.677 52.6305 117.662C58.4071 117.982 60.6535 114.776 60.3326 110.929C60.0117 110.929 60.0117 111.25 59.6907 111.25C57.4443 112.532 54.877 113.173 52.3096 113.173C51.9887 113.494 51.3469 113.494 50.705 113.494Z" fill="#528402"/>
<path d="M68.6765 75.6631C68.3556 75.6631 68.3556 75.6631 68.6765 75.6631C68.6765 75.9837 68.6765 76.3043 68.6765 76.3043V75.6631Z" fill="#703F1E"/>
<path d="M67.3926 80.7929C67.7135 80.7929 68.3554 80.7929 68.3554 80.7929C68.9972 74.3808 74.4528 70.5336 73.811 63.1597C73.4901 63.1597 72.8483 63.1597 72.8483 63.1597C72.5273 65.4039 72.2064 70.8542 69.96 72.1366C67.3926 73.7396 63.5416 70.8542 61.2952 70.213C61.6161 73.0984 67.7135 72.4572 68.3554 75.3426V75.022V75.6633C68.3554 75.3426 68.3554 75.3426 68.3554 75.022C67.3926 77.2663 67.0717 79.1899 67.3926 80.7929Z" fill="#703F1E"/>
<path d="M63.221 39.1143C58.7281 39.1143 49.1005 41.6791 48.1378 45.5263L47.8168 45.847C31.45 47.7706 33.0546 73.7395 49.1005 66.6862C52.9516 76.3044 60.0118 74.0602 68.0348 69.8923C77.3414 64.7626 84.4016 59.3123 79.2669 48.7324C76.3787 42.6409 69.3184 39.1143 63.221 39.1143Z" fill="#9BC90E"/>
<path d="M76.0579 46.168C74.1323 50.3358 69.9604 54.8243 65.4675 55.7861C62.9002 56.4273 60.3328 57.3891 58.0864 57.3891C54.5563 57.3891 51.3471 56.7479 48.4588 55.4655C44.6078 55.4655 40.7567 54.5037 37.5475 53.2213C34.3384 60.9158 38.5103 71.1751 49.4216 66.3661C53.2726 75.9842 60.3328 73.74 68.3558 69.5721C77.6624 64.4424 84.7227 58.9922 79.588 48.4122C78.9461 47.1298 77.9834 45.8474 77.0206 44.5649C76.3788 45.2062 76.0579 45.5268 76.0579 46.168Z" fill="#80B708"/>
<path d="M65.7885 62.1982C59.3701 64.4424 53.5936 63.4806 49.4216 60.5952C48.7798 60.9158 48.1379 61.2364 47.4961 61.557C44.2869 62.8394 41.0777 63.16 37.8685 62.5188C37.5476 62.5188 37.2267 62.5188 36.9058 62.1982C38.1894 66.6867 42.3614 69.5721 49.1007 66.6867C52.9517 76.3048 60.0119 74.0606 68.0349 69.8927C77.3416 64.763 84.4018 59.3128 79.2671 48.7328C78.9462 47.771 78.3043 46.8092 77.6625 46.168C77.3416 52.5801 73.8115 59.3128 65.7885 62.1982Z" fill="#528402"/>
<path opacity="0.42" d="M180.036 182.103L176.505 184.668C173.296 183.065 169.124 187.233 169.124 190.439C175.222 190.759 184.849 193.965 190.305 192.683C194.156 191.721 194.156 189.798 198.649 189.477C201.858 189.477 206.672 190.439 209.56 189.477C220.15 185.95 203.463 183.385 199.612 183.065C192.23 183.065 186.775 187.233 180.036 182.103Z" fill="#728407"/>
<path d="M196.082 147.478C196.403 147.158 196.403 147.478 196.724 147.478L195.44 146.517C195.761 146.837 195.761 147.158 196.082 147.478Z" fill="#703F1E"/>
<path d="M196.082 147.478C195.119 151.325 195.119 155.173 191.268 157.737C189.984 154.852 190.947 150.043 188.38 147.799C187.738 151.966 190.947 155.173 188.38 159.34C186.133 163.188 181.641 166.394 178.752 169.6C177.789 170.562 172.976 175.371 173.618 185.63C175.864 185.309 178.11 184.668 179.394 182.745C177.469 179.218 177.789 174.409 180.036 171.523C185.492 165.111 200.575 157.096 196.082 147.478Z" fill="#703F1E"/>
<path d="M195.119 129.524C192.231 129.845 186.133 132.73 186.133 135.295H185.813C175.543 138.181 178.752 154.852 188.701 148.761C191.91 154.532 196.403 152.608 201.217 149.081C206.672 144.913 210.844 140.746 206.672 134.334C203.784 130.807 198.97 129.204 195.119 129.524Z" fill="#9BC90E"/>
<path d="M204.105 132.089C204.105 132.41 204.105 132.731 203.784 133.051C202.821 135.937 200.896 139.143 198.007 140.425C196.403 141.066 194.798 142.028 193.193 142.028C190.947 142.349 188.701 142.349 186.775 141.707C184.208 142.028 181.64 142.028 179.394 141.387C178.11 146.837 181.64 152.929 188.38 148.761C191.589 154.532 196.082 152.608 200.896 149.081C206.351 144.914 210.523 140.746 206.351 134.334C205.709 133.372 205.068 132.731 204.105 132.089Z" fill="#80B708"/>
<path d="M198.649 144.593C194.798 146.837 190.947 146.516 187.738 144.913C187.417 145.234 187.096 145.554 186.454 145.554C184.529 146.516 182.282 147.157 180.357 147.157C180.036 147.157 180.036 147.157 179.715 147.157C180.999 150.043 183.887 151.325 188.059 149.081C191.268 154.852 195.761 152.928 200.575 149.402C206.03 145.234 210.202 141.066 206.03 134.654C205.709 134.013 205.067 133.692 204.747 133.051C205.388 137.219 203.784 141.707 198.649 144.593Z" fill="#528402"/>
<path d="M211.165 192.042C210.202 192.042 206.993 192.683 206.993 193.966C206.993 194.607 211.486 195.889 212.448 195.889C213.732 196.21 214.374 196.21 215.337 196.851C216.299 197.492 216.62 197.492 217.904 197.492C219.829 197.813 221.755 197.492 224.001 197.492C224.964 197.492 225.927 197.492 226.569 197.492C227.532 197.492 228.494 197.172 229.457 196.851C231.062 196.21 233.308 196.851 234.592 195.889C235.234 195.569 235.875 194.607 234.913 193.966C233.629 192.683 230.741 193.004 229.136 193.004C224.001 192.683 218.867 193.004 213.732 192.363C213.09 192.363 212.769 192.042 212.448 192.042H211.165Z" fill="#748E09"/>
<path d="M229.457 173.447C225.927 171.844 224.001 173.767 220.792 174.729C218.225 175.691 215.336 174.088 212.448 176.012C210.202 177.615 207.955 182.103 209.239 184.347L208.918 185.309C206.03 185.63 205.709 191.08 209.239 190.759C208.276 194.927 214.374 195.569 217.262 195.889C220.792 196.53 223.039 195.569 226.248 193.645C229.457 196.851 235.554 193.324 237.159 190.118C238.122 187.233 238.443 180.5 233.95 180.821C234.592 177.294 232.987 175.05 229.457 173.447Z" fill="#9BC90E"/>
<path d="M221.755 186.272C220.15 187.234 218.225 187.875 215.978 187.875C212.769 187.875 210.523 186.592 208.918 184.669V184.989C206.03 185.31 205.709 190.76 209.239 190.44C208.276 194.607 214.374 195.249 217.262 195.569C220.792 196.21 223.039 195.249 226.248 193.325C229.457 196.531 235.554 193.004 237.159 189.798C238.122 186.913 238.443 180.18 233.95 180.501C234.913 176.974 233.308 174.73 229.778 173.127C230.099 174.089 230.42 175.051 230.42 176.333V176.654C230.099 181.463 226.248 185.631 221.755 186.272Z" fill="#80B708"/>
<path d="M223.039 189.798H222.718C222.397 189.798 222.397 190.118 222.076 190.118C220.471 191.401 218.546 192.042 216.299 192.042C211.806 192.042 208.918 189.477 207.635 186.271C206.03 187.874 206.351 191.401 209.239 191.08C208.276 195.248 214.374 195.889 217.262 196.21C220.792 196.851 223.039 195.889 226.248 193.965C229.457 197.171 235.555 193.645 237.159 190.439C238.122 187.553 238.443 180.821 233.95 181.141C234.913 177.935 233.629 175.691 230.42 174.088C230.42 174.408 230.741 174.408 230.741 174.729C234.271 180.179 231.703 189.798 223.039 189.798Z" fill="#528402"/>
<path d="M168.482 190.76C168.162 190.76 167.841 190.76 167.52 190.76H166.557C165.915 190.76 163.669 191.08 163.669 192.042C163.669 192.363 166.557 193.325 167.199 193.325C168.162 193.645 168.482 193.645 169.124 193.966C169.766 194.286 170.087 194.286 170.729 194.607C172.013 194.607 173.296 194.607 174.901 194.607C175.543 194.607 176.185 194.607 176.826 194.607C177.468 194.607 178.11 194.286 178.752 193.966C179.715 193.645 181.319 193.966 182.282 193.325C182.924 193.004 182.924 192.683 182.603 192.042C181.961 191.08 179.715 191.401 178.752 191.401C175.222 191.08 171.692 191.08 168.482 190.76Z" fill="#748E09"/>
<path d="M170.729 193.325C173.296 193.645 174.58 193.004 176.827 191.721C179.073 193.966 183.245 191.401 184.208 189.157C184.85 187.233 185.17 182.745 181.961 182.745C182.603 180.5 181.319 178.897 179.073 177.615C176.827 176.653 175.222 177.935 173.296 178.577C171.692 179.218 169.445 178.256 167.52 179.539C165.915 180.5 164.632 183.706 165.274 184.989L164.953 185.951C163.027 186.271 162.706 189.798 165.274 189.798C164.632 192.363 168.804 193.004 170.729 193.325Z" fill="#9BC90E"/>
<path d="M170.729 193.324C173.297 193.645 174.58 193.004 176.827 191.721C179.073 193.966 183.245 191.401 184.208 189.157C184.85 187.233 185.171 182.744 181.961 182.744C182.603 180.5 181.32 178.897 179.073 177.615C179.394 178.256 179.394 178.897 179.394 179.859V180.18C179.394 183.386 176.827 185.95 173.938 186.592C172.976 187.233 171.692 187.874 170.087 187.874C167.841 187.874 166.236 186.912 165.274 185.63V185.95C163.348 186.271 163.027 189.798 165.595 189.798C164.632 192.363 168.804 193.004 170.729 193.324Z" fill="#80B708"/>
<path d="M170.729 193.325C173.297 193.645 174.58 193.004 176.827 191.722C179.073 193.966 183.245 191.401 184.208 189.157C184.85 187.233 185.171 182.745 181.962 182.745C182.603 180.5 181.641 179.218 179.715 177.936C179.715 177.936 179.715 178.256 180.036 178.256C182.603 182.103 180.678 188.515 174.901 188.515H174.58L174.259 188.836C173.297 189.477 172.013 190.119 170.408 190.119C167.52 190.119 165.274 188.515 164.632 186.271C163.669 187.233 163.99 189.798 165.595 189.477C164.632 192.363 168.804 193.004 170.729 193.325Z" fill="#528402"/>
<path d="M93.7083 337.277C93.7083 328.62 93.0664 323.17 93.7083 313.872C94.0292 305.216 91.4618 297.842 90.1781 289.186C88.8945 280.85 86.0062 270.911 84.4016 262.576C82.797 253.599 83.7598 243.981 84.0807 235.004C79.2669 231.477 75.4159 229.874 71.8857 223.462C71.8857 241.095 79.2669 257.446 81.1924 274.438C82.1552 283.094 83.1179 292.392 83.4388 301.048C83.7598 308.422 83.1179 325.735 83.1179 325.735C87.2899 329.903 90.1781 333.75 93.7083 337.277Z" fill="#30B9D8"/>
<path d="M80.2298 242.377C80.5507 243.019 83.439 249.11 83.7599 249.751C83.7599 244.622 84.0808 239.492 84.4017 234.683C79.5879 231.156 75.7369 229.553 72.2068 223.141C72.2068 226.668 72.5277 230.515 73.1695 234.042C75.0951 233.08 74.4532 230.515 75.0951 233.08C76.0578 235.965 80.2298 258.728 80.5507 261.293C81.5134 261.614 79.5879 240.454 80.2298 242.377Z" fill="#18A1B7"/>
<path d="M137.354 284.697C136.07 288.545 144.735 288.545 148.907 292.712C153.079 296.88 165.273 374.787 170.729 382.802L171.371 381.841C164.311 357.154 159.818 294.957 159.176 290.148C158.855 285.98 159.176 283.415 156.609 280.85C158.213 277.003 160.46 270.911 158.213 267.705C156.609 265.461 151.153 261.934 146.981 260.011C147.944 265.14 149.869 272.194 148.907 277.644C148.586 278.606 139.279 279.247 137.354 284.697Z" fill="#30B9D8"/>
<path d="M155.967 281.17C152.758 284.377 149.869 287.583 146.339 290.468C147.302 291.109 148.265 291.75 149.228 292.392C149.549 292.712 150.19 293.995 150.511 295.598C153.079 291.75 155.967 287.903 158.534 284.056C158.213 282.774 157.572 281.812 156.609 280.529C156.288 280.85 156.288 281.17 155.967 281.17Z" fill="#43D7EF"/>
<path d="M157.892 267.705C156.287 265.461 150.832 261.934 146.66 260.011C147.623 265.14 149.548 272.194 148.585 277.644C148.585 277.965 147.944 278.285 147.302 278.606C149.869 278.606 152.436 279.568 156.608 281.491L156.287 281.171C157.892 276.682 160.139 270.911 157.892 267.705Z" fill="#18A1B7"/>
<path d="M159.176 310.986C159.176 309.704 157.892 291.429 157.892 290.147C157.892 289.185 158.213 288.223 158.855 287.582C158.855 285.338 158.534 283.735 157.571 282.132C155.646 285.979 152.116 289.185 148.586 291.75C148.586 291.75 148.265 291.75 148.265 292.071C148.586 292.071 148.586 292.391 148.906 292.391C149.548 293.353 150.832 296.88 152.116 302.33C153.078 302.33 158.213 324.452 158.855 325.413C158.534 323.169 153.72 299.765 154.041 297.521C155.325 292.071 159.176 310.986 159.176 310.986Z" fill="#18A1B7"/>
<path d="M269.572 253.278C269.572 253.278 273.744 261.614 276.311 270.27C281.125 285.979 271.818 283.094 272.46 291.75C272.781 300.407 274.707 351.062 275.99 368.375C280.804 364.207 285.618 359.719 285.618 359.719C284.976 352.345 282.409 300.086 285.297 292.712C287.223 287.903 289.148 288.865 289.79 285.659C290.432 283.415 289.79 281.17 289.148 277.644C287.543 268.667 287.543 253.598 288.827 245.263C285.297 247.186 276.311 249.11 269.572 253.278Z" fill="#30B9D8"/>
<path d="M282.088 290.468C282.409 290.468 283.051 290.468 283.371 290.789C284.013 291.109 284.655 291.43 285.297 291.43C285.618 291.43 285.939 291.751 285.939 292.071C287.222 289.827 288.506 289.186 289.148 288.224C284.655 287.262 280.483 285.339 276.953 282.453C276.311 283.736 275.669 284.377 275.028 285.339C275.349 285.659 275.349 285.98 275.669 286.3C275.99 286.621 276.311 286.942 276.632 287.262C278.237 288.545 280.162 289.506 282.088 290.468Z" fill="#43D7EF"/>
<path d="M286.902 290.468C283.051 289.186 279.2 286.942 275.67 284.377C272.461 292.071 275.028 296.881 275.349 303.934C277.274 302.651 274.065 291.43 276.953 291.43C281.125 291.751 278.879 327.338 279.2 331.185C280.163 330.865 280.483 300.087 283.693 317.079C283.693 305.858 284.014 296.239 285.297 293.354C285.939 292.071 286.581 291.11 286.902 290.468Z" fill="#18A1B7"/>
<path d="M288.506 251.034C288.506 249.11 288.827 247.507 289.148 245.904C285.297 247.507 275.99 249.431 269.572 253.599C269.572 253.599 270.535 255.522 271.818 258.408C272.781 258.728 273.744 259.37 274.065 260.652C276.632 267.064 278.879 273.476 280.483 280.209C280.804 280.209 281.125 280.53 281.446 280.53C280.483 275.4 275.028 256.484 279.2 255.843C284.013 255.202 284.655 272.835 285.939 277.644C286.26 278.606 285.297 260.011 285.618 260.973C285.297 255.202 285.618 255.202 288.506 251.034Z" fill="#18A1B7"/>
<path d="M165.273 141.708C168.803 163.188 146.981 185.951 120.986 186.592C138.637 189.798 139.6 196.21 121.949 205.828C107.187 213.844 115.21 218.332 88.8945 225.065C99.8058 222.179 114.247 227.309 120.024 210.958C121.949 205.508 131.577 206.149 136.07 202.622C145.376 196.21 142.488 191.722 139.279 187.554C152.437 179.218 180.036 157.097 165.273 141.708Z" fill="#6BEEFC"/>
<path d="M351.085 159.661C349.802 160.623 343.704 157.416 332.793 156.775C326.054 156.455 315.463 155.813 308.724 156.134C245.182 160.943 241.01 153.569 227.211 148.119C221.434 145.875 214.695 141.707 210.202 137.218C206.351 133.051 206.03 122.15 210.523 118.303V118.623C206.351 120.868 200.574 126.959 199.932 131.768C198.97 138.18 204.746 142.669 209.881 145.554C215.978 149.081 222.076 151.966 228.494 154.852C233.629 157.096 240.368 158.699 245.182 161.584C247.749 163.187 249.033 165.432 251.921 166.073C255.131 166.714 258.34 165.432 261.228 164.47C267.005 162.226 271.818 161.264 278.237 160.623C285.297 159.981 292.357 159.661 299.417 159.34C311.291 158.699 324.449 157.737 336.002 159.34C340.495 159.981 349.481 166.393 353.974 165.111C362.638 161.905 353.974 154.21 349.481 154.21C347.876 153.89 354.936 156.455 351.085 159.661Z" fill="#6BEEFC"/>
<path d="M239.406 201.66C246.145 201.981 253.206 199.416 260.266 199.416C267.326 199.416 272.461 200.057 278.879 202.301C281.126 202.942 284.014 204.545 285.939 205.187C289.148 205.828 291.395 204.545 294.283 203.584C301.022 201.66 308.404 203.263 315.143 201.981C311.292 198.133 302.627 199.736 297.171 199.736C290.432 199.736 283.372 201.339 276.633 200.698C274.386 200.377 259.624 197.492 259.303 194.927C258.982 192.683 264.759 192.042 265.721 190.118C267.005 186.912 264.117 184.988 261.87 183.706L261.549 184.027C267.005 188.836 241.973 198.774 239.406 201.66Z" fill="#6BEEFC"/>
<path d="M218.225 129.204C217.262 129.204 213.09 130.166 213.09 131.449C213.09 132.41 218.546 133.693 219.508 134.013C221.113 134.334 221.755 134.334 223.039 135.296C224.001 135.937 224.964 135.937 226.248 136.258C228.815 136.578 231.062 136.258 233.629 136.258C234.913 136.258 235.875 136.258 236.838 136.258C238.122 136.258 239.085 135.616 240.368 135.296C242.294 134.655 244.861 135.296 246.787 134.013C247.749 133.372 248.07 132.731 247.428 131.449C245.824 129.846 241.973 130.487 240.047 130.166C233.629 129.846 227.531 130.166 221.434 129.204C220.792 129.204 220.471 128.884 219.829 128.884L218.225 129.204Z" fill="#748E09"/>
<path d="M240.689 106.441C236.196 104.518 233.95 107.082 230.099 108.365C226.89 109.327 223.36 107.724 219.83 109.968C217.262 111.891 214.374 117.342 215.658 120.227L215.337 121.51C211.807 122.151 211.486 128.884 215.658 128.242C214.695 133.372 222.076 134.013 225.606 134.654C230.099 135.296 232.987 134.334 236.517 132.09C240.368 135.937 248.07 131.769 249.675 127.601C250.959 124.074 251.28 115.739 245.824 116.059C247.108 111.25 244.861 108.365 240.689 106.441Z" fill="#9BC90E"/>
<path d="M231.062 122.151C229.136 123.434 226.89 124.395 224.001 124.395C220.15 124.395 217.262 122.792 215.337 120.548L215.016 121.189C211.486 121.831 211.165 128.563 215.337 127.922C214.374 133.052 221.755 133.693 225.285 134.334C229.778 134.975 232.666 134.014 236.196 131.769C240.047 135.617 247.749 131.449 249.354 127.281C250.638 123.754 250.959 115.419 245.503 115.739C246.787 111.571 244.54 108.365 240.368 106.762C240.689 108.045 241.01 109.327 241.01 110.609V110.93C241.01 116.38 236.838 121.189 231.062 122.151Z" fill="#80B708"/>
<path d="M232.345 126.319C232.024 126.319 232.024 126.319 231.703 126.319C231.382 126.319 231.382 126.64 231.062 126.64C229.136 128.243 226.89 128.884 224.001 128.884C218.546 128.884 215.016 125.678 213.411 121.831C211.485 123.754 212.127 127.922 215.336 127.602C214.374 132.731 221.755 133.372 225.285 134.014C229.778 134.655 232.666 133.693 236.196 131.449C240.047 135.296 247.749 131.128 249.354 126.96C250.638 123.434 250.959 115.098 245.503 115.419C246.787 111.571 244.861 108.686 241.331 106.762C241.331 107.083 241.652 107.083 241.652 107.403C246.466 114.457 243.256 126.319 232.345 126.319Z" fill="#528402"/>
<path d="M247.429 150.042C248.713 151.004 249.675 151.004 251.601 151.325C255.131 151.645 258.34 151.645 261.87 151.325C263.475 151.325 264.759 151.325 266.363 151.325C268.289 151.325 269.572 150.683 271.177 150.042C274.065 149.08 277.595 150.042 279.842 148.439C281.126 147.798 281.767 146.516 280.484 145.233C278.558 142.989 273.424 143.63 270.535 143.63C262.191 142.989 253.527 143.63 245.183 142.348C244.22 142.348 243.578 142.027 242.936 142.027L240.69 141.707C239.406 142.027 233.95 142.989 233.95 144.913C233.95 146.195 241.332 148.119 242.936 148.439C244.862 148.76 245.824 149.08 247.429 150.042Z" fill="#748E09"/>
<path d="M237.159 139.783C235.555 146.516 245.824 147.798 250.638 148.439C256.735 149.401 260.587 147.798 265.4 144.913C270.856 150.363 281.125 144.272 283.372 138.821C285.297 134.012 285.618 122.791 277.916 123.112C279.521 117.341 276.632 113.173 270.856 110.608C265.079 108.043 261.549 111.249 256.415 112.852C252.243 114.135 247.108 111.89 242.615 115.097C238.764 117.661 235.234 125.035 237.159 128.883L236.518 130.486C231.704 131.447 231.383 140.424 237.159 139.783Z" fill="#9BC90E"/>
<path d="M258.34 132.409C255.773 134.332 252.564 135.294 248.713 135.294C243.257 135.294 239.406 133.05 236.839 130.165L236.518 130.806C231.383 131.447 231.062 140.744 236.839 140.103C235.234 146.836 245.503 148.118 250.317 148.76C256.415 149.721 260.266 148.118 265.08 145.233C270.535 150.683 280.805 144.592 283.051 139.141C284.976 134.332 285.297 123.111 277.595 123.432C279.2 117.661 276.312 113.493 270.535 110.928C271.177 112.531 271.498 114.455 271.498 116.058V116.699C272.14 124.394 266.042 131.126 258.34 132.409Z" fill="#80B708"/>
<path d="M260.266 137.86C259.945 137.86 259.945 137.86 259.624 137.86C259.303 138.18 258.982 138.18 258.661 138.501C256.094 140.424 252.885 141.707 249.034 141.707C241.331 141.707 236.839 137.539 234.592 132.089C232.025 134.654 232.667 140.424 237.48 140.104C235.876 146.837 246.145 148.119 250.959 148.76C257.056 149.722 260.908 148.119 265.721 145.234C271.177 150.684 281.446 144.592 283.693 139.142C285.618 134.333 285.939 123.112 278.237 123.432C279.842 118.303 277.595 114.455 272.461 111.891C272.782 112.211 272.782 112.532 273.102 112.852C279.2 121.829 275.028 137.86 260.266 137.86Z" fill="#528402"/>
</g>
<defs>
<clipPath id="clip0">
<rect width="405" height="403" fill="white"/>
</clipPath>
</defs>
</svg>
